<svg aria-hidden="true" style="width:0;height:0;position:absolute;overflow:hidden" xmlns="http://www.w3.org/2000/svg"><defs><symbol id="icon-arcticons_map" viewBox="0 0 32 32"><path stroke-linejoin="round" stroke-linecap="round" stroke-width="1.333" d="M16 3c-5.457 0-9.88 4.423-9.88 9.88v.72c.4 5.413 4.893 9.767 9.88 15.4 5.207-5.88 9.88-10.333 9.88-16.12C25.88 7.423 21.457 3 16 3zm0 5.133a4.753 4.753 0 0 1 0 9.506 4.753 4.753 0 0 1 0-9.506z"/></symbol><symbol id="icon-arcticons_phone" viewBox="0 0 32 32"><path stroke-linejoin="round" stroke-linecap="round" stroke-width="1.333" d="M27.147 20.187a41.107 41.107 0 0 1-4.481-.796l.281.056a2.068 2.068 0 0 0-2.003.389l.003-.002c-.353.36-1.373 1.367-2.433 2.407-3.814-1.904-6.832-4.924-8.683-8.629l-.05-.111c1.033-1.06 2-2.073 2.393-2.427a2.077 2.077 0 0 0 .383-2.015l.004.015a37.14 37.14 0 0 1-.719-4.003l-.021-.204a1.334 1.334 0 0 0-1.541-1.179l.008-.001h-5.68a1 1 0 0 0-.906.91v.004c-.367 5.127 2.493 10.613 3.073 11.667v.04l.08.153c2.113 3.621 5.046 6.553 8.555 8.606l.112.06.293.167c1.333.707 6.633 3.373 11.587 3.007a1 1 0 0 0 .926-.903v-5.677a1.334 1.334 0 0 0-1.174-1.533h-.006z"/></symbol><symbol id="icon-arcticons_spike-email" viewBox="0 0 32 32"><path stroke-linejoin="round" stroke-linecap="round" stroke-width="1.333" d="M25.148 27.035c.356-.296.699-.608 1.025-.937M23.88 16a7.874 7.874 0 0 0-15.746.007v.008a7.874 7.874 0 0 0 15.746-.006v-.007z"/><path stroke-linejoin="round" stroke-linecap="round" stroke-width="1.333" d="M30.333 16v-.025c0-7.916-6.417-14.333-14.333-14.333S1.667 8.059 1.667 15.975c0 2.83.82 5.469 2.236 7.691l-.035-.058-.889 5.413 5.413-.889a14.159 14.159 0 0 0 7.623 2.201 14.25 14.25 0 0 0 5.656-1.162l-.093.036"/><path stroke-linejoin="round" stroke-linecap="round" stroke-width="1.333" d="M23.429 18.624c-.963 2.348.605 3.612 1.953 3.919 1.645.373 4.951-1.347 4.951-6.543"/></symbol><symbol id="icon-arrow-left" viewBox="0 0 30 32"><path d="M20.014 27.334a.987.987 0 0 0 .255-.663v-.01a.986.986 0 0 0-.256-.664l.001.001L10.877 16l9.137-9.996a.987.987 0 0 0 .255-.663v-.01a.986.986 0 0 0-.256-.664l.001.001a.845.845 0 0 0-.275-.202l-.005-.002a.807.807 0 0 0-.942.204l-.001.001-9.716 10.634c-.17.187-.266.437-.266.698s.095.511.266.698l9.716 10.634c.08.087.175.156.28.204a.807.807 0 0 0 .942-.204l.001-.001v.002z"/></symbol><symbol id="icon-arrow-right" viewBox="0 0 30 32"><path d="M9.986 4.666a.987.987 0 0 0-.255.663v.005c0 .25.092.49.255.668L19.123 16l-9.137 9.996a.987.987 0 0 0-.255.663v.005c0 .25.092.49.255.668.08.087.175.156.28.204a.81.81 0 0 0 .942-.203l.001-.001 9.716-10.634c.17-.187.266-.437.266-.698s-.095-.511-.266-.698L11.209 4.668a.845.845 0 0 0-.275-.202l-.005-.002a.806.806 0 0 0-.669.002l.005-.002a.844.844 0 0 0-.279.203l-.001.001v-.002z"/></symbol><symbol id="icon-benefit_awards" viewBox="0 0 32 32"><path stroke-linejoin="round" stroke-linecap="round" stroke-width="2" d="M20.667 30h-9.334m9.334 0V16.933a.934.934 0 0 0-.934-.934H12.266a.933.933 0 0 0-.933.933V30m9.334 0h8.4a.933.933 0 0 0 .933-.933V25.488a.933.933 0 0 0-.933-.933H21.6a.935.935 0 0 0-.933.934V30zm-9.334 0v-7.623a.933.933 0 0 0-.933-.933H2.933a.933.933 0 0 0-.933.933v6.69c0 .515.418.933.933.933h8.4zm2.81-24.714 1.414-2.998a.487.487 0 0 1 .885-.003l.001.003 1.416 2.998 3.16.483c.407.063.569.585.275.884l-2.287 2.333.54 3.295c.068.423-.355.747-.719.546L16 11.272l-2.828 1.555c-.362.2-.787-.123-.719-.546l.54-3.295-2.287-2.333c-.295-.299-.132-.821.273-.884l3.164-.483z"/></symbol><symbol id="icon-benefit_gruph" viewBox="0 0 32 32"><path stroke-linejoin="round" stroke-linecap="round" stroke-width="2" d="M25.333 26.333h-21v-21"/><path stroke-linejoin="round" stroke-linecap="round" stroke-width="2" d="m4.333 21.74 10.5-9.844 3.938 3.937 5.906-5.906"/></symbol><symbol id="icon-benefit_home" viewBox="0 0 32 32"><path stroke-linejoin="round" stroke-linecap="round" stroke-width="2" d="M25.333 17.333v8.534a.8.8 0 0 1-.8.8H7.467a.8.8 0 0 1-.8-.8v-8.534M4 12.667l12-7.334 12 7.334H4z"/></symbol><symbol id="icon-benefit_suitcase" viewBox="0 0 32 32"><path stroke-width="2" d="M10.667 9.333h10.667m-10.667 0H5.334A2.668 2.668 0 0 0 2.667 12v13.333A2.668 2.668 0 0 0 5.334 28h21.333a2.668 2.668 0 0 0 2.667-2.667V12a2.668 2.668 0 0 0-2.667-2.667h-16zm0 0V4.8a.8.8 0 0 1 .8-.8h9.067a.8.8 0 0 1 .8.8v4.533H10.667z"/></symbol><symbol id="icon-burger" viewBox="0 0 32 32"><path d="M4 5.333h24V8H4V5.333zm0 9.334h24v2.667H4v-2.667zM4 24h24v2.667H4V24z"/></symbol><symbol id="icon-close_btn" viewBox="0 0 32 32"><path d="M24.48 26.373 16 17.88l-8.48 8.493-1.893-1.893L14.12 16 5.627 7.52 7.52 5.627 16 14.12l8.48-8.48 1.88 1.88L17.88 16l8.48 8.48-1.88 1.893z"/></symbol><symbol id="icon-facebook" viewBox="0 0 32 32"><path d="M0 16.089C0 24.044 5.777 30.658 13.333 32V20.444h-4V16h4v-3.556c0-4 2.577-6.221 6.223-6.221 1.155 0 2.4.177 3.555.355v4.089h-2.044c-1.956 0-2.4.977-2.4 2.223v3.111h4.267l-.711 4.444h-3.556v11.556C26.223 30.66 32 24.046 32 16.09 32 7.241 24.8.001 16 .001S0 7.241 0 16.09z"/></symbol><symbol id="icon-instagram" viewBox="0 0 32 32"><path d="M9.953 1.421c1.564-.072 2.063-.088 6.047-.088s4.483.017 6.045.088c1.563.071 2.629.32 3.563.681a7.218 7.218 0 0 1 2.597 1.693 7.158 7.158 0 0 1 1.691 2.596c.363.933.611 2 .683 3.56.072 1.567.088 2.065.088 6.048 0 3.984-.017 4.483-.088 6.047-.071 1.56-.32 2.627-.683 3.56a7.234 7.234 0 0 1-1.69 2.598l-.001.001a7.187 7.187 0 0 1-2.597 1.691c-.933.363-2 .611-3.56.683-1.565.072-2.064.088-6.048.088s-4.483-.017-6.047-.088c-1.56-.071-2.627-.32-3.56-.683a7.234 7.234 0 0 1-2.598-1.69l-.001-.001a7.196 7.196 0 0 1-1.675-2.548l-.017-.049c-.361-.933-.609-2-.681-3.56-.072-1.567-.088-2.065-.088-6.048 0-3.984.017-4.483.088-6.045s.32-2.629.681-3.563a7.243 7.243 0 0 1 1.692-2.596l.001-.001A7.192 7.192 0 0 1 6.342 2.12l.049-.017c.933-.361 2-.609 3.56-.681h.001zm11.974 2.64C20.38 3.99 19.916 3.976 16 3.976s-4.38.015-5.927.085c-1.431.065-2.207.304-2.724.505a4.57 4.57 0 0 0-1.687 1.096 4.553 4.553 0 0 0-1.086 1.655l-.01.031c-.201.517-.44 1.293-.505 2.724-.071 1.547-.085 2.011-.085 5.927s.015 4.38.085 5.927c.065 1.431.304 2.207.505 2.724a4.56 4.56 0 0 0 1.096 1.687 4.551 4.551 0 0 0 1.687 1.096c.517.201 1.293.44 2.724.505 1.547.071 2.009.085 5.927.085s4.38-.015 5.927-.085c1.431-.065 2.207-.304 2.724-.505a4.57 4.57 0 0 0 1.687-1.096 4.551 4.551 0 0 0 1.096-1.687c.201-.517.44-1.293.505-2.724.071-1.547.085-2.011.085-5.927s-.015-4.38-.085-5.927c-.065-1.431-.304-2.207-.505-2.724a4.57 4.57 0 0 0-1.096-1.687 4.566 4.566 0 0 0-1.655-1.086l-.031-.01c-.517-.201-1.293-.44-2.724-.505zm-7.8 16.46a4.893 4.893 0 1 0 3.555-9.117l-.034-.011a4.893 4.893 0 0 0-3.553 9.115l.032.012zm-3.458-9.852a7.54 7.54 0 0 1 10.662 10.662 7.54 7.54 0 0 1-10.662-10.662zm14.542-1.085a1.782 1.782 0 1 0-2.447-2.591l.001-.001a1.782 1.782 0 1 0 2.447 2.591l-.001.001z"/></symbol><symbol id="icon-send_icon" viewBox="0 0 32 32"><path d="M29.107 15.591 2.966 2.484a.5.5 0 0 0-.708.569l-.001-.003L4.95 14.057a.493.493 0 0 0 .322.352l.003.001 4.616 1.584-4.613 1.585a.49.49 0 0 0-.319.349l-.001.003-2.701 11.023a.5.5 0 0 0 .711.564l-.003.001 26.141-13.031a.517.517 0 0 0 .224-.22l.001-.003a.507.507 0 0 0-.224-.673l-.003-.001zm-23.77 10.23 1.573-6.424 9.224-3.167a.251.251 0 0 0 .002-.474l-.002-.001-9.225-3.163-1.565-6.4 19.625 9.84L5.337 25.82z"/></symbol><symbol id="icon-twitter" viewBox="0 0 32 32"><path stroke-linejoin="round" stroke-linecap="round" stroke-width="2.667" d="M32 5.344s-1.027 2.799-2.933 4.531c2.347 13.327-13.787 23.056-26.4 15.46 3.227.133 6.453-.8 8.8-2.667-7.333-1.997-11-9.86-7.333-15.991 3.227 3.467 8.213 5.464 13.2 5.331-1.32-5.597 5.867-8.795 10.267-5.064 1.613 0 4.4-1.6 4.4-1.6z"/></symbol><symbol id="icon-youtube" viewBox="0 0 32 32"><path d="M29.384 5.513C28.517 4.862 26.104 4 15.992 4 5.155 4 3.547 4.991 3.032 5.316.284 7.036.023 14.648 0 16.192c.033 2.039.349 8.821 3.029 10.499C3.544 27.015 5.142 28 15.992 28c10.12 0 12.529-.859 13.392-1.507 2.34-1.755 2.609-7.799 2.616-10.328-.007-2.035-.211-8.847-2.616-10.653zm-1.167 19.291c-.348.261-2.347 1.113-12.227 1.113-9.549 0-11.553-.773-11.932-1.011-.964-.603-1.981-3.803-2.061-8.72.08-4.908 1.111-8.491 2.064-9.085.379-.24 2.391-1.019 11.931-1.019 9.869 0 11.875.859 12.225 1.12.856.643 1.771 4.025 1.785 8.969-.013 5.021-.936 7.995-1.787 8.632zm-5.712-9.623-8.987-5.749a.963.963 0 0 0-1.012-.012l.004-.002a1.023 1.023 0 0 0-.369.376l-.003.005a1.058 1.058 0 0 0-.136.524v11.502c0 .276.105.541.293.736a.967.967 0 0 0 1.227.154l-.004.002 8.987-5.752c.292-.19.483-.515.483-.885v-.016c0-.369-.19-.693-.477-.881l-.004-.002zM14 19.98v-7.813l6.057 3.907-6.056 3.907z"/></symbol><symbol id="icon-logo" viewBox="0 0 41 32"><path d="M11.996.165v12.091h-1.437L3.877 2.762h-.12v9.494H2.272V.165h1.437l6.706 9.517h.12V.165h1.461zM16.453.165v12.091h-1.485V.165h1.485zM29.298 3.944h-1.485a3.063 3.063 0 0 0-1.251-1.913c-.307-.22-.649-.386-1.024-.496s-.766-.165-1.174-.165c-.742 0-1.415.185-2.018.555-.599.37-1.076.915-1.431 1.635-.351.72-.527 1.604-.527 2.651s.176 1.931.527 2.651c.355.72.832 1.265 1.431 1.635a3.78 3.78 0 0 0 2.018.555c.407 0 .798-.055 1.174-.165s.716-.274 1.024-.49a3.077 3.077 0 0 0 1.251-1.919h1.485c-.112.618-.315 1.171-.611 1.659s-.663.903-1.102 1.246a4.853 4.853 0 0 1-1.479.773 5.589 5.589 0 0 1-1.742.266c-1.046 0-1.976-.252-2.79-.756s-1.455-1.22-1.922-2.149c-.467-.929-.701-2.031-.701-3.306s.234-2.377.701-3.306c.467-.929 1.108-1.645 1.922-2.149S23.318 0 24.364 0c.619 0 1.2.089 1.742.266.547.177 1.04.437 1.479.779.439.339.806.752 1.102 1.24.295.484.499 1.037.611 1.659zM31.697 12.257V.166h7.401v1.299h-5.916v4.086h5.533V6.85h-5.533v4.109h6.012v1.299h-7.497zM1.557 19.908l3.64 10.179h.144l3.641-10.179h1.557L6.036 32H4.503L0 19.908h1.557zM13.933 19.908V32h-1.485V19.908h1.485zM16.911 32V19.908h7.401v1.299h-5.916v4.086h5.533v1.299h-5.533v4.109h6.012V32h-7.497zM29.215 32l-3.353-12.092h1.509l2.563 9.848h.12l2.611-9.848h1.676l2.611 9.848h.12l2.563-9.848h1.509L37.791 32h-1.533l-2.706-9.635h-.096L30.75 32h-1.533z"/></symbol></defs></svg>