<svg aria-hidden="true" style="width:0;height:0;position:absolute;overflow:hidden" xmlns="http://www.w3.org/2000/svg"><defs><symbol id="icon-arcticons_map" viewBox="0 0 32 32"><path stroke-linejoin="round" stroke-linecap="round" stroke-width="1.333" d="M16 3c-5.457 0-9.88 4.423-9.88 9.88v.72c.4 5.413 4.893 9.767 9.88 15.4 5.207-5.88 9.88-10.333 9.88-16.12C25.88 7.423 21.457 3 16 3zm0 5.133a4.753 4.753 0 0 1 0 9.506 4.753 4.753 0 0 1 0-9.506z"/></symbol><symbol id="icon-arcticons_phone" viewBox="0 0 32 32"><path stroke-linejoin="round" stroke-linecap="round" stroke-width="1.333" d="M27.147 20.187a41.107 41.107 0 0 1-4.481-.796l.281.056a2.068 2.068 0 0 0-2.003.389l.003-.002c-.353.36-1.373 1.367-2.433 2.407-3.814-1.904-6.832-4.924-8.683-8.629l-.05-.111c1.033-1.06 2-2.073 2.393-2.427a2.077 2.077 0 0 0 .383-2.015l.004.015a37.14 37.14 0 0 1-.719-4.003l-.021-.204a1.334 1.334 0 0 0-1.541-1.179l.008-.001h-5.68a1 1 0 0 0-.906.91v.004c-.367 5.127 2.493 10.613 3.073 11.667v.04l.08.153c2.113 3.621 5.046 6.553 8.555 8.606l.112.06.293.167c1.333.707 6.633 3.373 11.587 3.007a1 1 0 0 0 .926-.903v-5.677a1.334 1.334 0 0 0-1.174-1.533h-.006z"/></symbol><symbol id="icon-arcticons_spike-email" viewBox="0 0 32 32"><path stroke-linejoin="round" stroke-linecap="round" stroke-width="1.333" d="M25.148 27.035c.356-.296.699-.608 1.025-.937M23.88 16a7.874 7.874 0 0 0-15.746.007v.008a7.874 7.874 0 0 0 15.746-.006v-.007z"/><path stroke-linejoin="round" stroke-linecap="round" stroke-width="1.333" d="M30.333 16v-.025c0-7.916-6.417-14.333-14.333-14.333S1.667 8.059 1.667 15.975c0 2.83.82 5.469 2.236 7.691l-.035-.058-.889 5.413 5.413-.889a14.159 14.159 0 0 0 7.623 2.201 14.25 14.25 0 0 0 5.656-1.162l-.093.036"/><path stroke-linejoin="round" stroke-linecap="round" stroke-width="1.333" d="M23.429 18.624c-.963 2.348.605 3.612 1.953 3.919 1.645.373 4.951-1.347 4.951-6.543"/></symbol><symbol id="icon-arrow-left" viewBox="0 0 30 32"><path d="M20.014 27.334a.987.987 0 0 0 .255-.663v-.01a.986.986 0 0 0-.256-.664l.001.001L10.877 16l9.137-9.996a.987.987 0 0 0 .255-.663v-.01a.986.986 0 0 0-.256-.664l.001.001a.845.845 0 0 0-.275-.202l-.005-.002a.807.807 0 0 0-.942.204l-.001.001-9.716 10.634c-.17.187-.266.437-.266.698s.095.511.266.698l9.716 10.634c.08.087.175.156.28.204a.807.807 0 0 0 .942-.204l.001-.001v.002z"/></symbol><symbol id="icon-arrow-right" viewBox="0 0 30 32"><path d="M9.986 4.666a.987.987 0 0 0-.255.663v.005c0 .25.092.49.255.668L19.123 16l-9.137 9.996a.987.987 0 0 0-.255.663v.005c0 .25.092.49.255.668.08.087.175.156.28.204a.81.81 0 0 0 .942-.203l.001-.001 9.716-10.634c.17-.187.266-.437.266-.698s-.095-.511-.266-.698L11.209 4.668a.845.845 0 0 0-.275-.202l-.005-.002a.806.806 0 0 0-.669.002l.005-.002a.844.844 0 0 0-.279.203l-.001.001v-.002z"/></symbol><symbol id="icon-benefit_awards" viewBox="0 0 32 32"><path stroke-linejoin="round" stroke-linecap="round" stroke-width="2" d="M20.667 30h-9.334m9.334 0V16.933a.934.934 0 0 0-.934-.934H12.266a.933.933 0 0 0-.933.933V30m9.334 0h8.4a.933.933 0 0 0 .933-.933V25.488a.933.933 0 0 0-.933-.933H21.6a.935.935 0 0 0-.933.934V30zm-9.334 0v-7.623a.933.933 0 0 0-.933-.933H2.933a.933.933 0 0 0-.933.933v6.69c0 .515.418.933.933.933h8.4zm2.81-24.714 1.414-2.998a.487.487 0 0 1 .885-.003l.001.003 1.416 2.998 3.16.483c.407.063.569.585.275.884l-2.287 2.333.54 3.295c.068.423-.355.747-.719.546L16 11.272l-2.828 1.555c-.362.2-.787-.123-.719-.546l.54-3.295-2.287-2.333c-.295-.299-.132-.821.273-.884l3.164-.483z"/></symbol><symbol id="icon-benefit_gruph" viewBox="0 0 32 32"><path stroke-linejoin="round" stroke-linecap="round" stroke-width="2" d="M25.333 26.333h-21v-21"/><path stroke-linejoin="round" stroke-linecap="round" stroke-width="2" d="m4.333 21.74 10.5-9.844 3.938 3.937 5.906-5.906"/></symbol><symbol id="icon-benefit_home" viewBox="0 0 32 32"><path stroke-linejoin="round" stroke-linecap="round" stroke-width="2" d="M25.333 17.333v8.534a.8.8 0 0 1-.8.8H7.467a.8.8 0 0 1-.8-.8v-8.534M4 12.667l12-7.334 12 7.334H4z"/></symbol><symbol id="icon-benefit_suitcase" viewBox="0 0 32 32"><path stroke-width="2" d="M10.667 9.333h10.667m-10.667 0H5.334A2.668 2.668 0 0 0 2.667 12v13.333A2.668 2.668 0 0 0 5.334 28h21.333a2.668 2.668 0 0 0 2.667-2.667V12a2.668 2.668 0 0 0-2.667-2.667h-16zm0 0V4.8a.8.8 0 0 1 .8-.8h9.067a.8.8 0 0 1 .8.8v4.533H10.667z"/></symbol><symbol id="icon-burger" viewBox="0 0 32 32"><path d="M4 5.333h24V8H4V5.333zm0 9.334h24v2.667H4v-2.667zM4 24h24v2.667H4V24z"/></symbol><symbol id="icon-close_btn" viewBox="0 0 32 32"><path d="M24.48 26.373 16 17.88l-8.48 8.493-1.893-1.893L14.12 16 5.627 7.52 7.52 5.627 16 14.12l8.48-8.48 1.88 1.88L17.88 16l8.48 8.48-1.88 1.893z"/></symbol><symbol id="icon-facebook" viewBox="0 0 32 32"><path d="M0 16.089C0 24.044 5.777 30.658 13.333 32V20.444h-4V16h4v-3.556c0-4 2.577-6.221 6.223-6.221 1.155 0 2.4.177 3.555.355v4.089h-2.044c-1.956 0-2.4.977-2.4 2.223v3.111h4.267l-.711 4.444h-3.556v11.556C26.223 30.66 32 24.046 32 16.09 32 7.241 24.8.001 16 .001S0 7.241 0 16.09z"/></symbol><symbol id="icon-instagram" viewBox="0 0 32 32"><path d="M9.953 1.421c1.564-.072 2.063-.088 6.047-.088s4.483.017 6.045.088c1.563.071 2.629.32 3.563.681a7.218 7.218 0 0 1 2.597 1.693 7.158 7.158 0 0 1 1.691 2.596c.363.933.611 2 .683 3.56.072 1.567.088 2.065.088 6.048 0 3.984-.017 4.483-.088 6.047-.071 1.56-.32 2.627-.683 3.56a7.234 7.234 0 0 1-1.69 2.598l-.001.001a7.187 7.187 0 0 1-2.597 1.691c-.933.363-2 .611-3.56.683-1.565.072-2.064.088-6.048.088s-4.483-.017-6.047-.088c-1.56-.071-2.627-.32-3.56-.683a7.234 7.234 0 0 1-2.598-1.69l-.001-.001a7.196 7.196 0 0 1-1.675-2.548l-.017-.049c-.361-.933-.609-2-.681-3.56-.072-1.567-.088-2.065-.088-6.048 0-3.984.017-4.483.088-6.045s.32-2.629.681-3.563a7.243 7.243 0 0 1 1.692-2.596l.001-.001A7.192 7.192 0 0 1 6.342 2.12l.049-.017c.933-.361 2-.609 3.56-.681h.001zm11.974 2.64C20.38 3.99 19.916 3.976 16 3.976s-4.38.015-5.927.085c-1.431.065-2.207.304-2.724.505a4.57 4.57 0 0 0-1.687 1.096 4.553 4.553 0 0 0-1.086 1.655l-.01.031c-.201.517-.44 1.293-.505 2.724-.071 1.547-.085 2.011-.085 5.927s.015 4.38.085 5.927c.065 1.431.304 2.207.505 2.724a4.56 4.56 0 0 0 1.096 1.687 4.551 4.551 0 0 0 1.687 1.096c.517.201 1.293.44 2.724.505 1.547.071 2.009.085 5.927.085s4.38-.015 5.927-.085c1.431-.065 2.207-.304 2.724-.505a4.57 4.57 0 0 0 1.687-1.096 4.551 4.551 0 0 0 1.096-1.687c.201-.517.44-1.293.505-2.724.071-1.547.085-2.011.085-5.927s-.015-4.38-.085-5.927c-.065-1.431-.304-2.207-.505-2.724a4.57 4.57 0 0 0-1.096-1.687 4.566 4.566 0 0 0-1.655-1.086l-.031-.01c-.517-.201-1.293-.44-2.724-.505zm-7.8 16.46a4.893 4.893 0 1 0 3.555-9.117l-.034-.011a4.893 4.893 0 0 0-3.553 9.115l.032.012zm-3.458-9.852a7.54 7.54 0 0 1 10.662 10.662 7.54 7.54 0 0 1-10.662-10.662zm14.542-1.085a1.782 1.782 0 1 0-2.447-2.591l.001-.001a1.782 1.782 0 1 0 2.447 2.591l-.001.001z"/></symbol><symbol id="icon-send_icon" viewBox="0 0 32 32"><path d="M29.107 15.591 2.966 2.484a.5.5 0 0 0-.708.569l-.001-.003L4.95 14.057a.493.493 0 0 0 .322.352l.003.001 4.616 1.584-4.613 1.585a.49.49 0 0 0-.319.349l-.001.003-2.701 11.023a.5.5 0 0 0 .711.564l-.003.001 26.141-13.031a.517.517 0 0 0 .224-.22l.001-.003a.507.507 0 0 0-.224-.673l-.003-.001zm-23.77 10.23 1.573-6.424 9.224-3.167a.251.251 0 0 0 .002-.474l-.002-.001-9.225-3.163-1.565-6.4 19.625 9.84L5.337 25.82z"/></symbol><symbol id="icon-twitter" viewBox="0 0 32 32"><path stroke-linejoin="round" stroke-linecap="round" stroke-width="2.667" d="M32 5.344s-1.027 2.799-2.933 4.531c2.347 13.327-13.787 23.056-26.4 15.46 3.227.133 6.453-.8 8.8-2.667-7.333-1.997-11-9.86-7.333-15.991 3.227 3.467 8.213 5.464 13.2 5.331-1.32-5.597 5.867-8.795 10.267-5.064 1.613 0 4.4-1.6 4.4-1.6z"/></symbol><symbol id="icon-youtube" viewBox="0 0 32 32"><path d="M29.384 5.513C28.517 4.862 26.104 4 15.992 4 5.155 4 3.547 4.991 3.032 5.316.284 7.036.023 14.648 0 16.192c.033 2.039.349 8.821 3.029 10.499C3.544 27.015 5.142 28 15.992 28c10.12 0 12.529-.859 13.392-1.507 2.34-1.755 2.609-7.799 2.616-10.328-.007-2.035-.211-8.847-2.616-10.653zm-1.167 19.291c-.348.261-2.347 1.113-12.227 1.113-9.549 0-11.553-.773-11.932-1.011-.964-.603-1.981-3.803-2.061-8.72.08-4.908 1.111-8.491 2.064-9.085.379-.24 2.391-1.019 11.931-1.019 9.869 0 11.875.859 12.225 1.12.856.643 1.771 4.025 1.785 8.969-.013 5.021-.936 7.995-1.787 8.632zm-5.712-9.623-8.987-5.749a.963.963 0 0 0-1.012-.012l.004-.002a1.023 1.023 0 0 0-.369.376l-.003.005a1.058 1.058 0 0 0-.136.524v11.502c0 .276.105.541.293.736a.967.967 0 0 0 1.227.154l-.004.002 8.987-5.752c.292-.19.483-.515.483-.885v-.016c0-.369-.19-.693-.477-.881l-.004-.002zM14 19.98v-7.813l6.057 3.907-6.056 3.907z"/></symbol><symbol id="icon-logo" viewBox="0 0 41 32"><path d="M11.996.165v12.091h-1.437L3.877 2.762h-.12v9.494H2.272V.165h1.437l6.706 9.517h.12V.165h1.461zM16.453.165v12.091h-1.485V.165h1.485zM29.298 3.944h-1.485a3.063 3.063 0 0 0-1.251-1.913c-.307-.22-.649-.386-1.024-.496s-.766-.165-1.174-.165c-.742 0-1.415.185-2.018.555-.599.37-1.076.915-1.431 1.635-.351.72-.527 1.604-.527 2.651s.176 1.931.527 2.651c.355.72.832 1.265 1.431 1.635a3.78 3.78 0 0 0 2.018.555c.407 0 .798-.055 1.174-.165s.716-.274 1.024-.49a3.077 3.077 0 0 0 1.251-1.919h1.485c-.112.618-.315 1.171-.611 1.659s-.663.903-1.102 1.246a4.853 4.853 0 0 1-1.479.773 5.589 5.589 0 0 1-1.742.266c-1.046 0-1.976-.252-2.79-.756s-1.455-1.22-1.922-2.149c-.467-.929-.701-2.031-.701-3.306s.234-2.377.701-3.306c.467-.929 1.108-1.645 1.922-2.149S23.318 0 24.364 0c.619 0 1.2.089 1.742.266.547.177 1.04.437 1.479.779.439.339.806.752 1.102 1.24.295.484.499 1.037.611 1.659zM31.697 12.257V.166h7.401v1.299h-5.916v4.086h5.533V6.85h-5.533v4.109h6.012v1.299h-7.497zM1.557 19.908l3.64 10.179h.144l3.641-10.179h1.557L6.036 32H4.503L0 19.908h1.557zM13.933 19.908V32h-1.485V19.908h1.485zM16.911 32V19.908h7.401v1.299h-5.916v4.086h5.533v1.299h-5.533v4.109h6.012V32h-7.497zM29.215 32l-3.353-12.092h1.509l2.563 9.848h.12l2.611-9.848h1.676l2.611 9.848h.12l2.563-9.848h1.509L37.791 32h-1.533l-2.706-9.635h-.096L30.75 32h-1.533z"/></symbol><symbol id="icon-snow" viewBox="0 0 1300 800"><path d="M5075 7854c-881-56-1620-313-2009-700-267-264-341-573-206-862 40-85 94-165 163-238 31-34 57-64 57-66 0-3-59-8-132-12-261-14-546-46-858-97C824 5672 0 5215 0 4720c0-501 826-956 2112-1165 760-123 1646-148 2453-69 313 30 696 91 979 155 127 28 138 29 406 29 755 0 1906 41 2505 89 90 7 130 5 220-10 617-103 1363-101 2008 7 1078 180 1872 627 2067 1162 113 312 26 628-252 910-383 390-1072 676-1928 802-107 15-233 31-280 35-134 10-125 4-126 82-1 89-36 161-118 243-73 72-122 107-239 166-282 144-670 237-1131 274-167 13-575 13-747 0-139-11-369-42-475-64l-62-12-63 39c-367 224-884 379-1469 442-138 15-652 27-785 19zM6681 3023l-21-18 66-93 67-94-14-74-14-75-110 155c-60 86-113 155-116 156-4 0-17-8-29-18l-22-17 131-182c131-181 138-196 122-253-7-24-10-21-60 47-45 63-55 71-71 63-10-6-22-15-25-20s26-55 65-110l72-100-17-102c-10-57-19-105-20-106-2-2-49 22-105 53-55 32-103 55-106 53-2-3-21-56-42-118l-38-112-90 75-90 74-12 128c-7 71-14 130-17 133-2 2-16 1-30-2l-27-7 7-96 8-96-32 23c-18 12-36 32-40 44-5 11-16 104-25 206-22 240-19 228-56 222-20-3-30-10-29-21 0-9 8-91 18-183 9-93 14-168 11-168s-29 22-58 48l-53 47-10 110c-6 61-12 111-13 113-2 1-16 0-32-4l-29-6 9-99c5-55 7-101 5-103s-48-9-103-14c-54-6-100-13-103-15-2-3-1-17 3-32 7-30-2-30 179-9 49 6 53 4 109-41 31-26 56-48 54-50s-77-10-168-19c-211-21-210-21-210-51 0-13 4-26 9-29s108 4 228 16l219 22 39-30 39-29-70-8c-113-13-114-14-114-48v-32l48 6c26 4 84 10 129 13l82 7 80-68c45-37 79-70 76-74-2-5-45-32-94-60-50-29-93-56-96-62-4-5 28-48 70-95s74-88 72-90c-3-3-49-22-104-43l-99-38-119 54c-111 49-121 52-132 36-7-9-13-22-13-28 0-7 39-30 88-53l87-41-37-15c-21-9-44-16-52-16s-101 39-206 87c-184 83-193 86-206 68-8-10-14-24-14-29 0-6 75-44 165-85 91-41 162-78 158-81-4-4-34-17-65-29l-58-21-106 47c-87 38-107 44-115 32-21-33-9-47 77-85 47-20 87-41 90-45 2-4-14-46-36-94s-40-90-40-94c0-11 54-34 57-24 2 4 23 51 47 103l43 95 67 28c38 16 70 27 72 24 2-2-30-77-71-168-41-90-75-170-75-176 0-12 47-30 54-22 2 2 45 94 94 204 90 197 91 200 133 218 23 9 43 16 45 14 2-1-13-36-31-77-19-41-35-80-35-86 0-11 48-29 55-22 2 2 25 52 52 112l49 109 100 38 99 37 9-121c4-67 9-123 11-125 1-1 46 7 100 18 146 30 135 38 114-86-10-59-20-107-21-109-103-72-208-151-208-156 0-4 8-16 18-27 17-21 17-21 91 33 41 30 77 53 79 50 2-2 1-23-2-47-7-42-10-45-177-163-94-66-174-124-179-130s0-20 11-33l18-24 148 107c161 116 163 117 143 20-11-53-13-56-101-120-49-36-89-69-89-73 1-10 26-42 33-42 4 0 41 25 83 55s80 55 84 55c3 0 32-36 64-80 31-44 60-80 64-80s17 7 30 15l22 16-68 93-68 94 10 65c6 36 14 68 17 72 4 3 55-62 114-145 59-82 110-150 115-150 4 0 17 8 28 17 20 18 19 20-112 202-130 179-133 184-126 222 4 22 10 42 12 44 3 3 27-26 54-65 27-38 52-70 55-70 4 0 16 8 28 18l22 17-72 100-72 99 13 96c7 52 15 100 19 107 4 8 39-7 110-48 57-33 107-56 111-52s22 53 40 108 35 103 39 107c5 6 117-77 163-121 5-4 13-56 18-116 16-157 16-157 48-153 27 3 27 4 24 68-1 36-5 80-8 98-6 39 2 40 43 2l33-29 21-213c12-117 24-216 28-220 3-3 18-4 33-1 23 4 26 9 22 37-9 68-34 329-31 332 1 2 28-17 58-41l56-44 10-111c6-61 14-114 17-117s17-2 31 1l26 7-7 77c-12 142-23 125 91 139 55 6 101 12 103 12 1 1 2 15 2 31 0 35 6 34-129 19l-99-12-63 49c-55 44-59 49-38 52 13 2 101 11 194 20l170 17-3 30c-2 17-5 31-6 32-1 2-88-6-192-17-243-26-262-25-296 5-16 13-28 26-28 29 0 2 38 7 85 11s88 11 90 16c3 4 3 20-1 35-6 22-11 25-34 21-15-3-71-9-126-12l-99-7-77 63c-42 35-75 66-72 70 2 4 49 33 104 64 89 51 99 59 87 74-7 9-43 50-80 92s-67 79-67 82c0 7 182 77 202 77 8 0 58-20 109-44 133-61 133-61 148-30 6 15 10 28 9 29-2 2-40 20-85 40-46 21-80 41-77 46 2 5 22 13 42 20 36 10 46 7 237-79l200-90 13 25c8 14 10 29 5 34-4 4-80 40-168 80-88 39-161 72-163 74-1 1 29 14 67 28l70 26 101-47c99-45 103-46 116-27 8 10 14 24 14 30s-40 28-90 49c-49 22-90 43-90 49 0 5 18 50 40 99 22 50 40 92 40 93 0 2-13 8-29 13l-29 10-47-103-47-104-65-26c-36-14-67-24-70-21-2 2 30 80 72 172 70 157 74 170 58 182-10 7-24 11-31 10-7-2-54-94-104-205-90-198-91-201-131-217-22-9-42-14-44-12s12 39 32 82c34 74 35 79 18 92-10 7-23 11-31 10-7-2-35-53-63-113l-50-111-97-36-97-36-3 119c-2 85-6 119-15 119-7 0-60-10-120-21-59-12-110-20-112-17-3 3 3 53 12 111l18 106 105 76c57 42 106 78 109 80 5 6-29 45-39 45-4 0-42-25-84-55l-77-55 6 37c4 21 9 45 11 53s83 71 179 140c96 68 175 127 175 131s-8 16-17 28c-18 21-19 20-163-84-79-58-147-105-151-105-3 0-1 30 5 68l11 67 90 67c89 67 97 79 70 107-11 12-26 4-97-47l-83-60-60 84c-33 46-63 84-66 84-4 0-16-8-28-17zm-109-854c29-17 54-32 56-34 3-3-152-65-162-65-5 0 29 103 39 120 8 14 7 14 67-21zm368-109c0-38-3-70-6-70-10 0-125 98-125 107 0 6 77 27 119 32 8 1 12-19 12-69zm-273-12c-3-13-11-58-18-100-6-43-15-78-18-78-9 0-146 114-150 125-3 9 151 74 178 75 9 0 11-8 8-22zm154-50c43-35 78-66 78-69 1-8-190-82-195-76-6 5 28 207 34 207 2 0 40-28 83-62zm-298-127 67-55-30-13c-17-7-63-24-102-38l-71-26 6 28c3 16 11 63 17 105 14 88 2 88 113-1zm-180-13c-8-46-16-85-18-87-4-4-94 90-95 99 0 5 111 69 121 70 3 0 0-37-8-82zm584-12c-3-8-11-52-17-98-7-45-16-87-21-92-4-5-44 21-90 59l-81 69 93 37c105 41 124 46 116 25zm112-72c23-26 41-50 41-53 0-4-28-22-61-40l-62-34 6 34c4 19 9 58 13 87 4 28 10 52 14 52 5 0 27-21 49-46zm-433-41c-2-10-10-52-16-93s-13-81-16-88c-2-9-30 8-79 49-42 34-78 66-80 69-4 7 167 78 188 80 5 0 6-8 3-17zm155-69c44-37 79-68 77-69-10-9-192-75-196-70-8 8 25 205 35 205 3 0 41-30 84-66zm-293-124c28-24 51-45 49-46-2-2-33-10-70-18l-67-14v76c0 70 1 74 18 60 9-8 41-34 70-58zm362-85c-12-36-25-65-29-63-27 11-121 64-121 68 0 7 163 69 169 64 1-1-7-32-19-69zM2908 2457c-61-119-50-114-148-62-47 24-90 45-96 45s-16-11-22-24c-10-24-8-27 51-59 34-19 80-44 102-55 36-18 43-27 62-88 13-37 21-69 19-71s-78 35-170 83c-92 47-169 85-170 83-9-10-27-51-24-54 2-1 92-48 200-104l196-102 16-44c8-25 13-45 10-45-2 0-39 18-82 39-75 38-79 39-90 20-7-10-12-23-12-28 0-6 49-36 109-68l109-58 28-90c15-49 29-96 32-104 4-12-14-13-116-7-67 4-122 4-122-1 0-4 7-51 15-103 22-140 22-140-17-130-18 5-68 16-110 25l-77 17-71 109c-38 60-73 109-76 109-13 0-44-21-44-30 0-5 22-44 49-87 28-43 49-78 48-79s-23 2-49 8l-46 11-117 183c-65 101-121 184-125 184s-17-8-28-17c-20-18-19-20 79-171 54-84 99-154 99-156 0-1-32 4-70 12l-71 16-64 98-65 99-25-17c-14-9-25-18-25-20s25-42 56-89c31-48 54-88 53-89-2-2-41-27-86-55-46-29-83-58-83-64 0-7 7-20 14-30 13-16 20-14 110 44l96 62 63-13c34-7 66-16 70-20 5-4-61-51-145-105s-155-100-157-102c-10-8 24-53 36-49 8 3 95 57 194 121 177 114 180 115 220 106 22-5 42-11 45-13 2-3-30-26-71-52-65-41-74-50-65-66 6-10 15-22 20-25 6-4 57 23 114 59l103 66 99-22c55-12 102-24 106-28 4-3-18-46-50-95-32-50-61-95-65-102-5-7 29-26 103-55 60-23 110-46 110-50 0-3-34-43-76-87l-76-81h-77c-42 0-100-3-128-6-51-7-53-8-53-37v-29l99 4 99 4-30-38c-27-34-34-38-76-38-89-1-394-19-399-24-3-3-2-17 1-31l7-26 179 7c110 4 180 3 180-2 0-6-22-31-48-57l-48-47h-96c-117 0-128-4-128-42v-30l108 4 107 3 3-103 3-102h69l-6 115-7 115 51 54 51 54 5-42c3-22 8-108 11-191 3-82 7-151 9-153 2-1 15 0 30 4 26 6 26 7 25 93-1 47-4 148-8 223l-6 137 31 37 31 37 7-92 8-91h61l-6 125-6 125 72 78c39 42 74 78 77 80 3 1 30-47 60-108 30-60 56-110 58-110s46 34 98 75c60 48 96 71 99 63 2-7 17-54 33-105l29-92-60-117c-56-111-59-118-41-131 10-7 23-13 28-13 6 0 31 39 56 86l45 87 15-48 15-48-98-191c-54-105-98-194-97-198 0-15 41-30 53-19 7 5 46 77 87 160s77 151 80 151 16-30 28-67l21-67-54-101-54-102 25-12c14-6 28-11 32-11 5 0 28 41 52 90 24 50 47 89 50 88 3-2 46-24 96-50l91-47 12 25c6 14 11 27 11 29s-45 28-100 57l-100 53-20 66c-11 36-20 69-20 72s74-32 163-79c90-46 168-84 174-84 5 0 15 11 21 24 11 24 8 27-121 94-73 38-164 86-203 105-57 29-73 42-78 64-4 15-9 36-12 46-5 15 10 10 76-23 45-23 83-40 85-38 13 16 26 53 19 55-5 2-56 29-114 61l-104 57-28 90c-15 50-28 95-28 100 0 6 44 8 121 5 66-3 122-4 123-3 1 2-5 56-15 120-9 65-16 119-14 121 4 5 200-40 211-49 6-5 39-54 73-109 35-55 66-102 70-104 4-3 17 4 30 13l24 18-51 79c-28 43-48 80-43 82 4 1 25-1 46-6 36-7 43-16 158-195 115-181 121-187 141-173 12 8 20 21 20 29-1 8-42 78-93 156-50 78-91 144-91 147 0 6 37-1 103-17 33-9 45-21 98-104 34-52 64-95 67-95 11 1 42 27 42 35 0 4-22 43-50 86-27 43-50 80-50 84 0 3 38 30 85 61 47 30 85 58 85 62s-7 16-15 27c-17 22-16 22-144-60l-64-42-73 15c-41 8-72 18-69 22 2 3 74 51 159 106 86 54 156 101 156 104s-8 15-18 27l-17 22-189-120c-184-119-189-121-232-114-24 3-44 9-44 13s32 27 70 51c39 24 70 49 70 55s-7 19-14 29c-13 17-21 14-121-49l-106-67-96 21c-53 12-99 24-101 27-3 2 23 48 57 100 33 53 61 99 61 103s-49 27-110 51c-60 24-110 47-110 52s30 41 67 81 68 75 70 76c1 2 61 7 135 10l133 7v60l-99-4-99-3 27 35c15 20 35 38 44 41 10 3 110 8 225 12l207 6v69l-112-6c-62-3-146-8-185-11-40-2-73-1-73 3 0 5 22 30 48 56l49 48 111 6 112 6v63l-105-4-105-4v53c0 30-3 78-6 107-7 50-8 52-37 52h-30l6-117 6-118-51-53c-27-29-52-52-53-50-2 2-7 87-11 191l-7 187h-69l6-67c3-38 8-139 12-225l6-157-28-35c-16-20-32-36-36-36-5 0-8 41-8 90v90h-67l5-129 5-129-69-74c-37-40-69-74-70-76s-28 44-59 102c-36 69-61 104-68 99-7-3-51-37-100-75-100-79-84-86-132 63l-28 86 62 117c35 65 61 119 60 120-14 12-52 27-56 22-3-2-24-42-48-87-23-45-45-77-47-73-3 5-11 25-17 45-12 36-9 42 90 233 56 109 100 198 98 200-16 14-54 27-56 20-2-5-41-81-87-169l-84-159-22 71-21 71 51 102c28 56 50 103 48 105-5 4-47 25-50 25-2 0-20-33-40-73zm402-787c16-33 30-61 30-64 0-5-160 30-166 37-3 3 95 86 103 87 2 0 16-27 33-60zm-310-78c0-4-27-34-59-66l-59-58-5 28c-3 16-8 46-12 67l-6 37h71c38 0 70-4 70-8zm257-38c94-20 95-11-4-118l-61-67-31 100c-17 54-31 102-31 106s10 5 23 2c12-3 59-13 104-23zm-160-95 31-101-32 6c-17 3-64 13-103 22-69 15-72 17-59 35 18 26 120 136 126 138 4 0 20-44 37-100zm492-24c1-2-14-31-35-65l-38-62-28 83c-15 46-28 86-28 90 0 6 118-36 129-46zm-164-58c15-49 24-91 21-94-4-5-196 34-203 41-2 2 29 38 68 80 40 42 75 73 80 69 4-4 19-48 34-96zm-407-63c45-10 82-21 82-25s-31-40-68-80l-68-73-28 87c-15 48-29 94-33 103-5 12-1 15 13 11 10-3 56-14 102-23zm-146-99c14-47 22-85 18-85-18 0-121 48-120 56 3 14 64 113 71 114 3 0 17-38 31-85zm468 19c47-10 87-19 89-20 2-2-29-40-70-85l-73-81-26 78c-42 124-44 137-23 130 10-2 56-13 103-22zm-165-51c10-32 24-77 31-101l13-43-32 6c-18 4-66 14-107 24l-74 17 69 76c39 42 73 77 76 77 3 1 14-25 24-56zm309-79c13-94 13-94-48-94-91 0-93 4-29 76 31 35 60 64 63 64 4 0 10-21 14-46zm-297-128c5-5-95-86-106-86-4 0-21 29-38 64l-32 64 86-19c47-10 88-21 90-23zM10083 2435l-21-15 52-101 53-100-21-70c-12-38-23-69-26-69s-43 73-89 163c-46 89-86 164-87 166-6 7-54-18-54-28 0-5 45-95 100-199s100-198 100-208c-1-11-7-32-14-49l-12-29-43 77c-23 42-44 77-46 77s-16-5-30-12l-25-11 59-112 60-112-31-99c-17-54-33-101-34-102-1-2-43 28-92 67-50 39-94 71-99 71s-33-49-63-110l-54-110-78 83-78 82 6 131 7 131-28 7c-15 4-30 5-33 2-2-3-7-49-10-101l-5-96-34 33-34 33 6 140c3 77 8 177 11 223l5 82h-71v-72c0-40-3-125-7-188l-6-114-49 54-49 55 3 115 3 115-33 3-32 3v-74c0-41-3-89-7-107l-6-33-104 6-103 6v-69h108c119 0 115 2 183-74l44-49-85 6c-47 4-134 7-195 8l-110 2-3-32-3-31 53-1c29 0 131-4 226-8l173-7 37-38 37-37-95 3-95 3v-60l122-5c137-6 128-1 224-111l49-57-106-43c-58-24-107-46-109-49s25-50 61-105c35-54 62-101 60-103s-52-14-110-27l-106-24-110 69c-61 39-112 70-114 70s-11-11-20-25l-17-25 81-52c84-53 86-59 23-73-30-6-50 4-209 105-96 61-181 113-188 116-16 6-44-45-30-54 6-4 74-47 152-95 78-49 142-92 142-96s-31-14-68-21l-69-13-94 61-94 60-17-21c-10-12-18-25-18-28 0-4 35-29 77-55 42-27 81-52 87-56 5-3-15-45-47-96l-56-90 24-16c13-9 26-16 29-16 2 0 30 42 61 93 32 50 62 95 68 98 14 10 128 31 133 26 3-3-38-73-90-156-53-83-96-155-96-160 0-17 41-34 52-23 6 6 61 91 123 188l112 178 46 12c26 7 47 10 47 8s-20-35-45-74-45-74-45-78c0-11 40-33 49-27 5 3 37 50 72 105 61 95 65 100 109 109 25 5 73 16 108 25 45 10 62 11 62 3 0-7-7-57-15-112s-15-105-15-112c0-9 30-10 122-6 105 5 121 4 116-9-3-8-18-56-34-106l-27-92-118-62-117-62 14-28 15-29 86 45c48 25 88 44 88 43 1-1-4-22-12-47-13-45-14-45-156-119-250-130-248-128-235-156 6-14 15-25 19-25 5 0 79 37 164 81 86 45 157 80 159 78s-6-33-18-69l-21-65-87-45c-109-57-112-60-97-93l12-27 93 51 93 50 37-73c58-114 61-119 90-106 13 6 24 16 24 21s-23 52-52 105l-51 95 24 74 24 74 84-160c46-87 87-164 91-171 6-9 13-9 31 0 13 7 26 14 28 16 2 1-44 92-102 202-105 198-105 199-94 240 6 23 15 42 19 42s24-33 44-73c20-39 38-73 39-75 3-3 44 15 54 24 2 2-22 53-54 114l-57 111 31 101c17 56 33 103 35 105s47-31 101-72c53-42 98-75 100-73 1 2 26 49 54 106 28 56 55 102 59 101s38-35 75-76l69-74-4-134-3-135h65l1 78c0 42 4 86 8 96 7 17 10 16 36-18l28-37-7-219-8-220h30c28 0 29 2 36 61 3 34 6 107 7 163s4 111 7 123c7 21 10 18 54-31l48-54-7-111-6-110 27-7c15-3 30-4 33 0 3 3 8 51 11 106l5 101 106-2 106-2 3 32 3 31-73 1c-145 2-165 8-217 68l-45 53 192-7 192-8v61l-107 6c-60 3-162 9-228 12l-120 7-30 35-29 35 92-5 92-4v63l-122 6-123 6-74 76c-42 43-70 79-65 84 5 4 57 27 116 51 65 26 104 48 101 54-4 6-33 50-65 98s-58 91-58 96 47 19 104 31l104 22 111-70 111-70 16 25c20 29 21 28-74 87-40 25-69 48-64 51s27 8 49 12c38 6 49 1 224-110l184-116 17 23c10 12 18 24 18 27s-68 47-150 99c-150 93-173 111-148 111 7 1 38 7 69 14l57 14 93-59c51-33 96-59 100-59s14 11 23 24c15 24 15 25-22 47-20 13-61 38-90 56l-52 34 37 57c79 123 78 121 57 137-11 8-23 14-29 15-5 0-36-42-68-94l-57-94-71-17c-38-10-72-16-74-14-2 3 42 76 97 163l100 159-23 18c-19 14-27 15-35 6-6-7-58-86-114-177-57-91-110-172-117-182-14-15-80-34-90-25-2 3 17 37 42 77 43 68 45 73 28 86-10 7-23 14-29 14-7 0-41-46-78-103l-65-103-97-22c-54-12-100-20-102-17-6 5 15 186 25 219 5 18 0 19-125 13l-130-7 34 106c18 58 34 107 36 109 2 1 54 28 115 61 62 32 113 64 113 70 0 5-6 18-13 28-13 18-18 16-101-27l-88-45 7 26c15 63 29 73 222 175l192 101-15 28-15 29-164-86c-91-48-165-83-165-78 0 4 8 35 18 68l18 60 99 53c55 30 101 55 103 57 3 3-15 43-24 54-1 2-41-18-87-43-47-25-90-46-96-46s-31 41-56 90c-25 50-49 90-53 90s-17-7-29-15zm-209-838 40-34-85-20c-46-10-85-18-87-17s11 30 28 63c34 69 35 69 104 8zm333-143c-4-37-9-69-12-72-2-3-31 24-64 59l-59 64 47 6c102 13 95 18 88-57zm-267 40c0-4-14-51-30-105l-31-98-72 75c-40 42-73 79-75 83-1 4 39 17 90 28 106 24 118 25 118 17zm210-175c0-6-200-53-205-47-2 2 11 50 28 107l32 104 72-79c40-43 73-81 73-85zm-543 78c-3-7-13-41-22-75-10-35-21-65-25-67-4-3-24 20-44 51l-37 55 53 24c60 27 82 31 75 12zm148-67c37-39 65-73 62-76-9-9-197-52-197-45-1 14 55 191 61 191 3 0 36-32 74-70zm404-92c-1-20-53-184-60-189-3-2-39 31-79 73-47 51-67 80-58 83 13 4 175 42 191 44 4 1 7-5 6-11zm108-83c22-34 33-59 27-65-12-11-115-52-121-47-4 5 46 167 52 167 3 0 21-25 42-55zm-437 18c0-19-54-183-61-183-9 0-139 143-134 148s155 40 178 41c9 1 17-2 17-6zm206-170c-6-6-166-42-187-43-14 0-12 14 15 101l31 100 73-77c40-42 71-79 68-81zm-326-55c0-5-32-8-71-8h-71l7 43c3 23 9 55 12 71l5 28 59-63c32-35 58-67 59-71zm310-79c-22-42-36-59-46-55-19 7-103 70-104 77 0 7 123 37 158 38 22 1 22 1-8-60z" transform="matrix(.1 0 0 -.1 0 786)"/></symbol></defs></svg>