<svg aria-hidden="true" style="position: absolute; width: 0; height: 0; overflow: hidden;" version="1.1" xmlns="http://www.w3.org/2000/svg" xmlns:xlink="http://www.w3.org/1999/xlink">
<defs>
<symbol id="icon-arcticons_map" viewBox="0 0 32 32">
<path stroke-linejoin="round" stroke-linecap="round" stroke-miterlimit="4" stroke-width="1.3333" d="M16 3c-5.457 0-9.88 4.423-9.88 9.88v0 0.72c0.4 5.413 4.893 9.767 9.88 15.4 5.207-5.88 9.88-10.333 9.88-16.12 0-5.457-4.423-9.88-9.88-9.88v0zM16 8.133c2.625 0 4.753 2.128 4.753 4.753s-2.128 4.753-4.753 4.753v0c-2.625 0-4.753-2.128-4.753-4.753s2.128-4.753 4.753-4.753v0z"></path>
</symbol>
<symbol id="icon-arcticons_phone" viewBox="0 0 32 32">
<path stroke-linejoin="round" stroke-linecap="round" stroke-miterlimit="4" stroke-width="1.3333" d="M27.147 20.187c-1.655-0.206-3.082-0.465-4.481-0.796l0.281 0.056c-0.196-0.068-0.422-0.107-0.657-0.107-0.514 0-0.983 0.187-1.346 0.496l0.003-0.002c-0.353 0.36-1.373 1.367-2.433 2.407-3.814-1.904-6.832-4.924-8.683-8.629l-0.050-0.111c1.033-1.060 2-2.073 2.393-2.427 0.307-0.359 0.494-0.829 0.494-1.343 0-0.235-0.039-0.461-0.111-0.672l0.004 0.015c-0.275-1.122-0.535-2.55-0.719-4.003l-0.021-0.204c-0.072-0.675-0.638-1.196-1.326-1.196-0.073 0-0.145 0.006-0.215 0.017l0.008-0.001h-5.68c-0.484 0.045-0.865 0.429-0.906 0.91l-0 0.004c-0.367 5.127 2.493 10.613 3.073 11.667v0.040l0.080 0.153c2.113 3.621 5.046 6.553 8.555 8.606l0.112 0.060 0.293 0.167c1.333 0.707 6.633 3.373 11.587 3.007 0.49-0.035 0.881-0.419 0.926-0.903l0-0.004v-5.673c0.010-0.062 0.016-0.134 0.016-0.207 0-0.688-0.521-1.254-1.19-1.326l-0.006-0z"></path>
</symbol>
<symbol id="icon-arcticons_spike-email" viewBox="0 0 32 32">
<path stroke-linejoin="round" stroke-linecap="round" stroke-miterlimit="4" stroke-width="1.3333" d="M25.148 27.035c0.356-0.296 0.699-0.608 1.025-0.937M23.88 16c-0.004-4.345-3.528-7.866-7.873-7.866-4.348 0-7.873 3.525-7.873 7.873 0 0.003 0 0.005 0 0.008v-0c0.004 4.345 3.527 7.867 7.873 7.867 4.348 0 7.873-3.525 7.873-7.873 0-0.002 0-0.005 0-0.007v0z"></path>
<path stroke-linejoin="round" stroke-linecap="round" stroke-miterlimit="4" stroke-width="1.3333" d="M30.333 16c0-0.007 0-0.016 0-0.025 0-7.916-6.417-14.333-14.333-14.333s-14.333 6.417-14.333 14.333c0 2.83 0.82 5.469 2.236 7.691l-0.035-0.058-0.889 5.413 5.413-0.889c2.161 1.381 4.796 2.201 7.623 2.201 2.009 0 3.921-0.414 5.656-1.162l-0.093 0.036"></path>
<path stroke-linejoin="round" stroke-linecap="round" stroke-miterlimit="4" stroke-width="1.3333" d="M23.429 18.624c-0.963 2.348 0.605 3.612 1.953 3.919 1.645 0.373 4.951-1.347 4.951-6.543"></path>
</symbol>
<symbol id="icon-arrow-left" viewBox="0 0 30 32">
<path d="M20.014 27.334c0.158-0.175 0.255-0.408 0.255-0.663 0-0.002 0-0.003 0-0.005v0c0-0.001 0-0.003 0-0.005 0-0.256-0.097-0.488-0.256-0.664l0.001 0.001-9.137-9.998 9.137-9.996c0.158-0.175 0.255-0.408 0.255-0.663 0-0.002 0-0.003 0-0.005v0c0-0.001 0-0.003 0-0.005 0-0.256-0.097-0.488-0.256-0.664l0.001 0.001c-0.077-0.085-0.17-0.154-0.275-0.202l-0.005-0.002c-0.098-0.046-0.213-0.072-0.334-0.072-0.242 0-0.46 0.107-0.608 0.276l-0.001 0.001-9.716 10.634c-0.17 0.187-0.266 0.437-0.266 0.698s0.095 0.511 0.266 0.698l9.716 10.634c0.080 0.087 0.175 0.156 0.28 0.204 0.098 0.046 0.213 0.072 0.334 0.072 0.242 0 0.46-0.107 0.608-0.276l0.001-0.001v0.002z"></path>
</symbol>
<symbol id="icon-arrow-right" viewBox="0 0 30 32">
<path d="M9.986 4.666c-0.158 0.175-0.255 0.408-0.255 0.663 0 0.002 0 0.003 0 0.005v-0c0 0.25 0.092 0.49 0.255 0.668l9.137 9.998-9.137 9.996c-0.158 0.175-0.255 0.408-0.255 0.663 0 0.002 0 0.003 0 0.005v-0c0 0.25 0.092 0.49 0.255 0.668 0.080 0.087 0.175 0.156 0.28 0.204 0.098 0.046 0.213 0.072 0.334 0.072 0.242 0 0.46-0.107 0.608-0.275l0.001-0.001 9.716-10.634c0.17-0.187 0.266-0.437 0.266-0.698s-0.095-0.511-0.266-0.698l-9.716-10.634c-0.077-0.085-0.17-0.154-0.275-0.202l-0.005-0.002c-0.097-0.045-0.211-0.071-0.332-0.071s-0.234 0.026-0.337 0.073l0.005-0.002c-0.11 0.050-0.203 0.119-0.279 0.203l-0.001 0.001v-0.002z"></path>
</symbol>
<symbol id="icon-benefit_awards" viewBox="0 0 32 32">
<path stroke-linejoin="round" stroke-linecap="round" stroke-miterlimit="4" stroke-width="2" d="M20.667 30h-9.334M20.667 30v-13.067c0-0.516-0.418-0.934-0.934-0.934h-7.466c-0 0-0.001 0-0.001 0-0.515 0-0.933 0.418-0.933 0.933 0 0 0 0.001 0 0.001v-0 13.067M20.667 30h8.4c0.515 0 0.933-0.418 0.933-0.933v0-3.578c0-0 0-0.001 0-0.001 0-0.515-0.418-0.933-0.933-0.933h-7.467c-0.515 0.001-0.933 0.419-0.933 0.934v0 4.511zM11.333 30v-7.623c0-0.515-0.418-0.933-0.933-0.933v0h-7.467c-0.515 0-0.933 0.418-0.933 0.933v0 6.69c0 0.515 0.418 0.933 0.933 0.933v0h8.4zM14.143 5.286l1.414-2.998c0.078-0.171 0.247-0.288 0.443-0.288s0.365 0.117 0.442 0.285l0.001 0.003 1.416 2.998 3.16 0.483c0.407 0.063 0.569 0.585 0.275 0.884l-2.287 2.333 0.54 3.295c0.068 0.423-0.355 0.747-0.719 0.546l-2.828-1.555-2.828 1.555c-0.362 0.2-0.787-0.123-0.719-0.546l0.54-3.295-2.287-2.333c-0.295-0.299-0.132-0.821 0.273-0.884l3.164-0.483z"></path>
</symbol>
<symbol id="icon-benefit_gruph" viewBox="0 0 32 32">
<path stroke-linejoin="round" stroke-linecap="round" stroke-miterlimit="4" stroke-width="2" d="M25.333 26.333h-21v-21"></path>
<path stroke-linejoin="round" stroke-linecap="round" stroke-miterlimit="4" stroke-width="2" d="M4.333 21.74l10.5-9.844 3.938 3.937 5.906-5.906"></path>
</symbol>
<symbol id="icon-benefit_home" viewBox="0 0 32 32">
<path stroke-linejoin="round" stroke-linecap="round" stroke-miterlimit="4" stroke-width="2" d="M25.333 17.333v8.534c0 0.442-0.358 0.8-0.8 0.8h-17.066c-0.442 0-0.8-0.358-0.8-0.8v0-8.534M4 12.667l12-7.334 12 7.334h-24z"></path>
</symbol>
<symbol id="icon-benefit_suitcase" viewBox="0 0 32 32">
<path stroke-linejoin="miter" stroke-linecap="butt" stroke-miterlimit="4" stroke-width="2" d="M10.667 9.333h10.667M10.667 9.333h-5.333c-0.707 0-1.386 0.281-1.886 0.781s-0.781 1.178-0.781 1.886v13.333c0 0.707 0.281 1.386 0.781 1.886s1.178 0.781 1.886 0.781h21.333c0.707 0 1.386-0.281 1.886-0.781s0.781-1.178 0.781-1.886v-13.333c0-0.707-0.281-1.386-0.781-1.886s-1.178-0.781-1.886-0.781h-16zM10.667 9.333v-4.533c0-0.212 0.084-0.416 0.234-0.566s0.354-0.234 0.566-0.234h9.067c0.212 0 0.416 0.084 0.566 0.234s0.234 0.354 0.234 0.566v4.533h-10.667z"></path>
</symbol>
<symbol id="icon-burger" viewBox="0 0 32 32">
<path d="M4 5.333h24v2.667h-24v-2.667zM4 14.667h24v2.667h-24v-2.667zM4 24h24v2.667h-24v-2.667z"></path>
</symbol>
<symbol id="icon-close_btn" viewBox="0 0 32 32">
<path d="M24.48 26.373l-8.48-8.493-8.48 8.493-1.893-1.893 8.493-8.48-8.493-8.48 1.893-1.893 8.48 8.493 8.48-8.48 1.88 1.88-8.48 8.48 8.48 8.48-1.88 1.893z"></path>
</symbol>
<symbol id="icon-facebook" viewBox="0 0 32 32">
<path d="M0 16.089c0 7.955 5.777 14.569 13.333 15.911v-11.556h-4v-4.444h4v-3.556c0-4 2.577-6.221 6.223-6.221 1.155 0 2.4 0.177 3.555 0.355v4.089h-2.044c-1.956 0-2.4 0.977-2.4 2.223v3.111h4.267l-0.711 4.444h-3.556v11.556c7.556-1.341 13.333-7.955 13.333-15.911 0-8.849-7.2-16.089-16-16.089s-16 7.24-16 16.089z"></path>
</symbol>
<symbol id="icon-instagram" viewBox="0 0 32 32">
<path d="M9.953 1.421c1.564-0.072 2.063-0.088 6.047-0.088s4.483 0.017 6.045 0.088c1.563 0.071 2.629 0.32 3.563 0.681 0.977 0.369 1.864 0.947 2.597 1.693 0.747 0.732 1.323 1.617 1.691 2.596 0.363 0.933 0.611 2 0.683 3.56 0.072 1.567 0.088 2.065 0.088 6.048 0 3.984-0.017 4.483-0.088 6.047-0.071 1.56-0.32 2.627-0.683 3.56-0.389 1.017-0.964 1.884-1.69 2.598l-0.001 0.001c-0.733 0.747-1.62 1.323-2.597 1.691-0.933 0.363-2 0.611-3.56 0.683-1.565 0.072-2.064 0.088-6.048 0.088s-4.483-0.017-6.047-0.088c-1.56-0.071-2.627-0.32-3.56-0.683-1.017-0.389-1.884-0.964-2.598-1.69l-0.001-0.001c-0.727-0.714-1.303-1.581-1.675-2.548l-0.017-0.049c-0.361-0.933-0.609-2-0.681-3.56-0.072-1.567-0.088-2.065-0.088-6.048 0-3.984 0.017-4.483 0.088-6.045s0.32-2.629 0.681-3.563c0.39-1.016 0.966-1.883 1.692-2.596l0.001-0.001c0.714-0.727 1.58-1.303 2.547-1.675l0.049-0.017c0.933-0.361 2-0.609 3.56-0.681h0.001zM21.927 4.061c-1.547-0.071-2.011-0.085-5.927-0.085s-4.38 0.015-5.927 0.085c-1.431 0.065-2.207 0.304-2.724 0.505-0.684 0.267-1.173 0.583-1.687 1.096-0.475 0.462-0.848 1.025-1.086 1.655l-0.010 0.031c-0.201 0.517-0.44 1.293-0.505 2.724-0.071 1.547-0.085 2.011-0.085 5.927s0.015 4.38 0.085 5.927c0.065 1.431 0.304 2.207 0.505 2.724 0.235 0.636 0.609 1.213 1.096 1.687 0.473 0.487 1.051 0.861 1.687 1.096 0.517 0.201 1.293 0.44 2.724 0.505 1.547 0.071 2.009 0.085 5.927 0.085s4.38-0.015 5.927-0.085c1.431-0.065 2.207-0.304 2.724-0.505 0.684-0.267 1.173-0.583 1.687-1.096 0.487-0.473 0.861-1.051 1.096-1.687 0.201-0.517 0.44-1.293 0.505-2.724 0.071-1.547 0.085-2.011 0.085-5.927s-0.015-4.38-0.085-5.927c-0.065-1.431-0.304-2.207-0.505-2.724-0.267-0.684-0.583-1.173-1.096-1.687-0.462-0.474-1.025-0.848-1.655-1.086l-0.031-0.010c-0.517-0.201-1.293-0.44-2.724-0.505zM14.127 20.521c0.554 0.236 1.198 0.373 1.874 0.373 2.703 0 4.893-2.191 4.893-4.893 0-2.112-1.338-3.911-3.212-4.597l-0.034-0.011c-0.49-0.181-1.057-0.286-1.648-0.286-2.703 0-4.893 2.191-4.893 4.893 0 2.026 1.232 3.765 2.988 4.508l0.032 0.012zM10.669 10.669c1.364-1.364 3.249-2.208 5.331-2.208 4.163 0 7.539 3.375 7.539 7.539 0 2.082-0.844 3.966-2.208 5.331v0c-1.364 1.364-3.249 2.208-5.331 2.208-4.163 0-7.539-3.375-7.539-7.539 0-2.082 0.844-3.966 2.208-5.331v0zM25.211 9.584c0.345-0.326 0.559-0.786 0.559-1.296 0-0.984-0.798-1.782-1.782-1.782-0.474 0-0.904 0.185-1.224 0.487l0.001-0.001c-0.345 0.326-0.559 0.786-0.559 1.296 0 0.984 0.798 1.782 1.782 1.782 0.474 0 0.904-0.185 1.224-0.487l-0.001 0.001z"></path>
</symbol>
<symbol id="icon-send_icon" viewBox="0 0 32 32">
<path d="M29.107 15.591l-26.141-13.107c-0.065-0.033-0.142-0.053-0.223-0.053-0.276 0-0.5 0.224-0.5 0.5 0 0.042 0.005 0.083 0.015 0.122l-0.001-0.003 2.693 11.007c0.041 0.167 0.163 0.299 0.322 0.352l0.003 0.001 4.616 1.584-4.613 1.585c-0.16 0.055-0.28 0.186-0.319 0.349l-0.001 0.003-2.701 11.023c-0.009 0.035-0.014 0.075-0.014 0.116 0 0.277 0.224 0.501 0.501 0.501 0.081 0 0.157-0.019 0.224-0.053l-0.003 0.001 26.141-13.031c0.097-0.050 0.175-0.126 0.224-0.22l0.001-0.003c0.032-0.065 0.051-0.142 0.051-0.222 0-0.196-0.112-0.367-0.275-0.451l-0.003-0.001zM5.337 25.821l1.573-6.424 9.224-3.167c0.1-0.035 0.17-0.128 0.17-0.237s-0.070-0.203-0.168-0.237l-0.002-0.001-9.225-3.163-1.565-6.4 19.625 9.84-19.632 9.788z"></path>
</symbol>
<symbol id="icon-twitter" viewBox="0 0 32 32">
<path stroke-linejoin="round" stroke-linecap="round" stroke-miterlimit="4" stroke-width="2.6667" d="M32 5.344s-1.027 2.799-2.933 4.531c2.347 13.327-13.787 23.056-26.4 15.46 3.227 0.133 6.453-0.8 8.8-2.667-7.333-1.997-11-9.86-7.333-15.991 3.227 3.467 8.213 5.464 13.2 5.331-1.32-5.597 5.867-8.795 10.267-5.064 1.613 0 4.4-1.6 4.4-1.6z"></path>
</symbol>
<symbol id="icon-youtube" viewBox="0 0 32 32">
<path d="M29.384 5.513c-0.867-0.651-3.28-1.513-13.392-1.513-10.837 0-12.445 0.991-12.96 1.316-2.748 1.72-3.009 9.332-3.032 10.876 0.033 2.039 0.349 8.821 3.029 10.499 0.515 0.324 2.113 1.309 12.963 1.309 10.12 0 12.529-0.859 13.392-1.507 2.34-1.755 2.609-7.799 2.616-10.328-0.007-2.035-0.211-8.847-2.616-10.653zM28.217 24.804c-0.348 0.261-2.347 1.113-12.227 1.113-9.549 0-11.553-0.773-11.932-1.011-0.964-0.603-1.981-3.803-2.061-8.72 0.080-4.908 1.111-8.491 2.064-9.085 0.379-0.24 2.391-1.019 11.931-1.019 9.869 0 11.875 0.859 12.225 1.12 0.856 0.643 1.771 4.025 1.785 8.969-0.013 5.021-0.936 7.995-1.787 8.632zM22.505 15.181l-8.987-5.749c-0.146-0.093-0.325-0.149-0.516-0.149-0.181 0-0.351 0.050-0.496 0.137l0.004-0.002c-0.156 0.093-0.282 0.222-0.369 0.376l-0.003 0.005c-0.086 0.151-0.136 0.331-0.136 0.524 0 0.001 0 0.001 0 0.002v-0 11.5c0 0.276 0.105 0.541 0.293 0.736 0.177 0.188 0.428 0.305 0.706 0.305 0.192 0 0.37-0.056 0.521-0.151l-0.004 0.002 8.987-5.752c0.292-0.19 0.483-0.515 0.483-0.885 0-0.002 0-0.004-0-0.006v0c0-0.003 0-0.007 0-0.010 0-0.369-0.19-0.693-0.477-0.881l-0.004-0.002zM14 19.98v-7.813l6.057 3.907-6.056 3.907z"></path>
</symbol>
<symbol id="icon-logo" viewBox="0 0 41 32">
<path d="M11.996 0.165v12.091h-1.437l-6.682-9.494h-0.12v9.494h-1.485v-12.091h1.437l6.706 9.517h0.12v-9.517h1.461z"></path>
<path d="M16.453 0.165v12.091h-1.485v-12.091h1.485z"></path>
<path d="M29.298 3.944h-1.485c-0.088-0.421-0.241-0.791-0.461-1.11-0.216-0.319-0.479-0.586-0.79-0.803-0.307-0.22-0.649-0.386-1.024-0.496s-0.766-0.165-1.174-0.165c-0.742 0-1.415 0.185-2.018 0.555-0.599 0.37-1.076 0.915-1.431 1.635-0.351 0.72-0.527 1.604-0.527 2.651s0.176 1.931 0.527 2.651c0.355 0.72 0.832 1.265 1.431 1.635 0.603 0.37 1.275 0.555 2.018 0.555 0.407 0 0.798-0.055 1.174-0.165s0.716-0.274 1.024-0.49c0.311-0.22 0.575-0.49 0.79-0.809 0.22-0.323 0.373-0.693 0.461-1.11h1.485c-0.112 0.618-0.315 1.171-0.611 1.659s-0.663 0.903-1.102 1.246c-0.439 0.338-0.932 0.596-1.479 0.773-0.543 0.177-1.124 0.266-1.742 0.266-1.046 0-1.976-0.252-2.79-0.756s-1.455-1.22-1.922-2.149c-0.467-0.929-0.701-2.031-0.701-3.306s0.234-2.377 0.701-3.306c0.467-0.929 1.108-1.645 1.922-2.149s1.744-0.756 2.79-0.756c0.619 0 1.2 0.089 1.742 0.266 0.547 0.177 1.040 0.437 1.479 0.779 0.439 0.339 0.806 0.752 1.102 1.24 0.295 0.484 0.499 1.037 0.611 1.659z"></path>
<path d="M31.697 12.257v-12.091h7.401v1.299h-5.916v4.086h5.533v1.299h-5.533v4.109h6.012v1.299h-7.497z"></path>
<path d="M1.557 19.908l3.64 10.179h0.144l3.641-10.179h1.557l-4.503 12.092h-1.533l-4.503-12.092h1.557z"></path>
<path d="M13.933 19.908v12.092h-1.485v-12.092h1.485z"></path>
<path d="M16.911 32v-12.092h7.401v1.299h-5.916v4.086h5.533v1.299h-5.533v4.109h6.012v1.299h-7.497z"></path>
<path d="M29.215 32l-3.353-12.092h1.509l2.563 9.848h0.12l2.611-9.848h1.676l2.611 9.848h0.12l2.563-9.848h1.509l-3.353 12.092h-1.533l-2.706-9.635h-0.096l-2.706 9.635h-1.533z"></path>
</symbol>
<symbol id="icon-snow" viewBox="0 0 1300 800">
<g transform="translate(0.000000,786.000000) scale(0.100000,-0.100000)"
 stroke="none">
<path d="M5075 7854 c-881 -56 -1620 -313 -2009 -700 -267 -264 -341 -573
-206 -862 40 -85 94 -165 163 -238 31 -34 57 -64 57 -66 0 -3 -59 -8 -132 -12
-261 -14 -546 -46 -858 -97 -1266 -207 -2090 -664 -2090 -1159 0 -501 826
-956 2112 -1165 760 -123 1646 -148 2453 -69 313 30 696 91 979 155 127 28
138 29 406 29 755 0 1906 41 2505 89 90 7 130 5 220 -10 617 -103 1363 -101
2008 7 1078 180 1872 627 2067 1162 113 312 26 628 -252 910 -383 390 -1072
676 -1928 802 -107 15 -233 31 -280 35 -134 10 -125 4 -126 82 -1 89 -36 161
-118 243 -73 72 -122 107 -239 166 -282 144 -670 237 -1131 274 -167 13 -575
13 -747 0 -139 -11 -369 -42 -475 -64 l-62 -12 -63 39 c-367 224 -884 379
-1469 442 -138 15 -652 27 -785 19z"/>
<path d="M6681 3023 l-21 -18 66 -93 67 -94 -14 -74 -14 -75 -110 155 c-60 86
-113 155 -116 156 -4 0 -17 -8 -29 -18 l-22 -17 131 -182 c131 -181 138 -196
122 -253 -7 -24 -10 -21 -60 47 -45 63 -55 71 -71 63 -10 -6 -22 -15 -25 -20
-3 -5 26 -55 65 -110 l72 -100 -17 -102 c-10 -57 -19 -105 -20 -106 -2 -2 -49
22 -105 53 -55 32 -103 55 -106 53 -2 -3 -21 -56 -42 -118 l-38 -112 -90 75
-90 74 -12 128 c-7 71 -14 130 -17 133 -2 2 -16 1 -30 -2 l-27 -7 7 -96 8 -96
-32 23 c-18 12 -36 32 -40 44 -5 11 -16 104 -25 206 -22 240 -19 228 -56 222
-20 -3 -30 -10 -29 -21 0 -9 8 -91 18 -183 9 -93 14 -168 11 -168 -3 0 -29 22
-58 48 l-53 47 -10 110 c-6 61 -12 111 -13 113 -2 1 -16 0 -32 -4 l-29 -6 9
-99 c5 -55 7 -101 5 -103 -2 -2 -48 -9 -103 -14 -54 -6 -100 -13 -103 -15 -2
-3 -1 -17 3 -32 7 -30 -2 -30 179 -9 49 6 53 4 109 -41 31 -26 56 -48 54 -50
-2 -2 -77 -10 -168 -19 -211 -21 -210 -21 -210 -51 0 -13 4 -26 9 -29 5 -3
108 4 228 16 l219 22 39 -30 39 -29 -70 -8 c-113 -13 -114 -14 -114 -48 l0
-32 48 6 c26 4 84 10 129 13 l82 7 80 -68 c45 -37 79 -70 76 -74 -2 -5 -45
-32 -94 -60 -50 -29 -93 -56 -96 -62 -4 -5 28 -48 70 -95 42 -47 74 -88 72
-90 -3 -3 -49 -22 -104 -43 l-99 -38 -119 54 c-111 49 -121 52 -132 36 -7 -9
-13 -22 -13 -28 0 -7 39 -30 88 -53 l87 -41 -37 -15 c-21 -9 -44 -16 -52 -16
-8 0 -101 39 -206 87 -184 83 -193 86 -206 68 -8 -10 -14 -24 -14 -29 0 -6 75
-44 165 -85 91 -41 162 -78 158 -81 -4 -4 -34 -17 -65 -29 l-58 -21 -106 47
c-87 38 -107 44 -115 32 -21 -33 -9 -47 77 -85 47 -20 87 -41 90 -45 2 -4 -14
-46 -36 -94 -22 -48 -40 -90 -40 -94 0 -11 54 -34 57 -24 2 4 23 51 47 103
l43 95 67 28 c38 16 70 27 72 24 2 -2 -30 -77 -71 -168 -41 -90 -75 -170 -75
-176 0 -12 47 -30 54 -22 2 2 45 94 94 204 90 197 91 200 133 218 23 9 43 16
45 14 2 -1 -13 -36 -31 -77 -19 -41 -35 -80 -35 -86 0 -11 48 -29 55 -22 2 2
25 52 52 112 l49 109 100 38 99 37 9 -121 c4 -67 9 -123 11 -125 1 -1 46 7
100 18 146 30 135 38 114 -86 -10 -59 -20 -107 -21 -109 -103 -72 -208 -151
-208 -156 0 -4 8 -16 18 -27 17 -21 17 -21 91 33 41 30 77 53 79 50 2 -2 1
-23 -2 -47 -7 -42 -10 -45 -177 -163 -94 -66 -174 -124 -179 -130 -5 -6 0 -20
11 -33 l18 -24 148 107 c161 116 163 117 143 20 -11 -53 -13 -56 -101 -120
-49 -36 -89 -69 -89 -73 1 -10 26 -42 33 -42 4 0 41 25 83 55 42 30 80 55 84
55 3 0 32 -36 64 -80 31 -44 60 -80 64 -80 4 0 17 7 30 15 l22 16 -68 93 -68
94 10 65 c6 36 14 68 17 72 4 3 55 -62 114 -145 59 -82 110 -150 115 -150 4 0
17 8 28 17 20 18 19 20 -112 202 -130 179 -133 184 -126 222 4 22 10 42 12 44
3 3 27 -26 54 -65 27 -38 52 -70 55 -70 4 0 16 8 28 18 l22 17 -72 100 -72 99
13 96 c7 52 15 100 19 107 4 8 39 -7 110 -48 57 -33 107 -56 111 -52 4 4 22
53 40 108 18 55 35 103 39 107 5 6 117 -77 163 -121 5 -4 13 -56 18 -116 16
-157 16 -157 48 -153 27 3 27 4 24 68 -1 36 -5 80 -8 98 -6 39 2 40 43 2 l33
-29 21 -213 c12 -117 24 -216 28 -220 3 -3 18 -4 33 -1 23 4 26 9 22 37 -9 68
-34 329 -31 332 1 2 28 -17 58 -41 l56 -44 10 -111 c6 -61 14 -114 17 -117 3
-3 17 -2 31 1 l26 7 -7 77 c-12 142 -23 125 91 139 55 6 101 12 103 12 1 1 2
15 2 31 0 35 6 34 -129 19 l-99 -12 -63 49 c-55 44 -59 49 -38 52 13 2 101 11
194 20 l170 17 -3 30 c-2 17 -5 31 -6 32 -1 2 -88 -6 -192 -17 -243 -26 -262
-25 -296 5 -16 13 -28 26 -28 29 0 2 38 7 85 11 47 4 88 11 90 16 3 4 3 20 -1
35 -6 22 -11 25 -34 21 -15 -3 -71 -9 -126 -12 l-99 -7 -77 63 c-42 35 -75 66
-72 70 2 4 49 33 104 64 89 51 99 59 87 74 -7 9 -43 50 -80 92 -37 42 -67 79
-67 82 0 7 182 77 202 77 8 0 58 -20 109 -44 133 -61 133 -61 148 -30 6 15 10
28 9 29 -2 2 -40 20 -85 40 -46 21 -80 41 -77 46 2 5 22 13 42 20 36 10 46 7
237 -79 l200 -90 13 25 c8 14 10 29 5 34 -4 4 -80 40 -168 80 -88 39 -161 72
-163 74 -1 1 29 14 67 28 l70 26 101 -47 c99 -45 103 -46 116 -27 8 10 14 24
14 30 0 6 -40 28 -90 49 -49 22 -90 43 -90 49 0 5 18 50 40 99 22 50 40 92 40
93 0 2 -13 8 -29 13 l-29 10 -47 -103 -47 -104 -65 -26 c-36 -14 -67 -24 -70
-21 -2 2 30 80 72 172 70 157 74 170 58 182 -10 7 -24 11 -31 10 -7 -2 -54
-94 -104 -205 -90 -198 -91 -201 -131 -217 -22 -9 -42 -14 -44 -12 -2 2 12 39
32 82 34 74 35 79 18 92 -10 7 -23 11 -31 10 -7 -2 -35 -53 -63 -113 l-50
-111 -97 -36 -97 -36 -3 119 c-2 85 -6 119 -15 119 -7 0 -60 -10 -120 -21 -59
-12 -110 -20 -112 -17 -3 3 3 53 12 111 l18 106 105 76 c57 42 106 78 109 80
5 6 -29 45 -39 45 -4 0 -42 -25 -84 -55 l-77 -55 6 37 c4 21 9 45 11 53 2 8
83 71 179 140 96 68 175 127 175 131 0 4 -8 16 -17 28 -18 21 -19 20 -163 -84
-79 -58 -147 -105 -151 -105 -3 0 -1 30 5 68 l11 67 90 67 c89 67 97 79 70
107 -11 12 -26 4 -97 -47 l-83 -60 -60 84 c-33 46 -63 84 -66 84 -4 0 -16 -8
-28 -17z m-109 -854 c29 -17 54 -32 56 -34 3 -3 -152 -65 -162 -65 -5 0 29
103 39 120 8 14 7 14 67 -21z m368 -109 c0 -38 -3 -70 -6 -70 -10 0 -125 98
-125 107 0 6 77 27 119 32 8 1 12 -19 12 -69z m-273 -12 c-3 -13 -11 -58 -18
-100 -6 -43 -15 -78 -18 -78 -9 0 -146 114 -150 125 -3 9 151 74 178 75 9 0
11 -8 8 -22z m154 -50 c43 -35 78 -66 78 -69 1 -8 -190 -82 -195 -76 -6 5 28
207 34 207 2 0 40 -28 83 -62z m-298 -127 l67 -55 -30 -13 c-17 -7 -63 -24
-102 -38 l-71 -26 6 28 c3 16 11 63 17 105 14 88 2 88 113 -1z m-180 -13 c-8
-46 -16 -85 -18 -87 -4 -4 -94 90 -95 99 0 5 111 69 121 70 3 0 0 -37 -8 -82z
m584 -12 c-3 -8 -11 -52 -17 -98 -7 -45 -16 -87 -21 -92 -4 -5 -44 21 -90 59
l-81 69 93 37 c105 41 124 46 116 25z m112 -72 c23 -26 41 -50 41 -53 0 -4
-28 -22 -61 -40 l-62 -34 6 34 c4 19 9 58 13 87 4 28 10 52 14 52 5 0 27 -21
49 -46z m-433 -41 c-2 -10 -10 -52 -16 -93 -6 -41 -13 -81 -16 -88 -2 -9 -30
8 -79 49 -42 34 -78 66 -80 69 -4 7 167 78 188 80 5 0 6 -8 3 -17z m155 -69
c44 -37 79 -68 77 -69 -10 -9 -192 -75 -196 -70 -8 8 25 205 35 205 3 0 41
-30 84 -66z m-293 -124 c28 -24 51 -45 49 -46 -2 -2 -33 -10 -70 -18 l-67 -14
0 76 c0 70 1 74 18 60 9 -8 41 -34 70 -58z m362 -85 c-12 -36 -25 -65 -29 -63
-27 11 -121 64 -121 68 0 7 163 69 169 64 1 -1 -7 -32 -19 -69z"/>
<path d="M2908 2457 c-61 -119 -50 -114 -148 -62 -47 24 -90 45 -96 45 -6 0
-16 -11 -22 -24 -10 -24 -8 -27 51 -59 34 -19 80 -44 102 -55 36 -18 43 -27
62 -88 13 -37 21 -69 19 -71 -2 -2 -78 35 -170 83 -92 47 -169 85 -170 83 -9
-10 -27 -51 -24 -54 2 -1 92 -48 200 -104 l196 -102 16 -44 c8 -25 13 -45 10
-45 -2 0 -39 18 -82 39 -75 38 -79 39 -90 20 -7 -10 -12 -23 -12 -28 0 -6 49
-36 109 -68 l109 -58 28 -90 c15 -49 29 -96 32 -104 4 -12 -14 -13 -116 -7
-67 4 -122 4 -122 -1 0 -4 7 -51 15 -103 22 -140 22 -140 -17 -130 -18 5 -68
16 -110 25 l-77 17 -71 109 c-38 60 -73 109 -76 109 -13 0 -44 -21 -44 -30 0
-5 22 -44 49 -87 28 -43 49 -78 48 -79 -1 -1 -23 2 -49 8 l-46 11 -117 183
c-65 101 -121 184 -125 184 -4 0 -17 -8 -28 -17 -20 -18 -19 -20 79 -171 54
-84 99 -154 99 -156 0 -1 -32 4 -70 12 l-71 16 -64 98 -65 99 -25 -17 c-14 -9
-25 -18 -25 -20 0 -2 25 -42 56 -89 31 -48 54 -88 53 -89 -2 -2 -41 -27 -86
-55 -46 -29 -83 -58 -83 -64 0 -7 7 -20 14 -30 13 -16 20 -14 110 44 l96 62
63 -13 c34 -7 66 -16 70 -20 5 -4 -61 -51 -145 -105 -84 -54 -155 -100 -157
-102 -10 -8 24 -53 36 -49 8 3 95 57 194 121 177 114 180 115 220 106 22 -5
42 -11 45 -13 2 -3 -30 -26 -71 -52 -65 -41 -74 -50 -65 -66 6 -10 15 -22 20
-25 6 -4 57 23 114 59 l103 66 99 -22 c55 -12 102 -24 106 -28 4 -3 -18 -46
-50 -95 -32 -50 -61 -95 -65 -102 -5 -7 29 -26 103 -55 60 -23 110 -46 110
-50 0 -3 -34 -43 -76 -87 l-76 -81 -77 0 c-42 0 -100 -3 -128 -6 -51 -7 -53
-8 -53 -37 l0 -29 99 4 99 4 -30 -38 c-27 -34 -34 -38 -76 -38 -89 -1 -394
-19 -399 -24 -3 -3 -2 -17 1 -31 l7 -26 179 7 c110 4 180 3 180 -2 0 -6 -22
-31 -48 -57 l-48 -47 -96 0 c-117 0 -128 -4 -128 -42 l0 -30 108 4 107 3 3
-103 3 -102 34 0 35 0 -6 115 -7 115 51 54 51 54 5 -42 c3 -22 8 -108 11 -191
3 -82 7 -151 9 -153 2 -1 15 0 30 4 26 6 26 7 25 93 -1 47 -4 148 -8 223 l-6
137 31 37 31 37 7 -92 8 -91 30 0 31 0 -6 125 -6 125 72 78 c39 42 74 78 77
80 3 1 30 -47 60 -108 30 -60 56 -110 58 -110 2 0 46 34 98 75 60 48 96 71 99
63 2 -7 17 -54 33 -105 l29 -92 -60 -117 c-56 -111 -59 -118 -41 -131 10 -7
23 -13 28 -13 6 0 31 39 56 86 l45 87 15 -48 15 -48 -98 -191 c-54 -105 -98
-194 -97 -198 0 -15 41 -30 53 -19 7 5 46 77 87 160 41 83 77 151 80 151 3 0
16 -30 28 -67 l21 -67 -54 -101 -54 -102 25 -12 c14 -6 28 -11 32 -11 5 0 28
41 52 90 24 50 47 89 50 88 3 -2 46 -24 96 -50 l91 -47 12 25 c6 14 11 27 11
29 0 2 -45 28 -100 57 l-100 53 -20 66 c-11 36 -20 69 -20 72 0 3 74 -32 163
-79 90 -46 168 -84 174 -84 5 0 15 11 21 24 11 24 8 27 -121 94 -73 38 -164
86 -203 105 -57 29 -73 42 -78 64 -4 15 -9 36 -12 46 -5 15 10 10 76 -23 45
-23 83 -40 85 -38 13 16 26 53 19 55 -5 2 -56 29 -114 61 l-104 57 -28 90
c-15 50 -28 95 -28 100 0 6 44 8 121 5 66 -3 122 -4 123 -3 1 2 -5 56 -15 120
-9 65 -16 119 -14 121 4 5 200 -40 211 -49 6 -5 39 -54 73 -109 35 -55 66
-102 70 -104 4 -3 17 4 30 13 l24 18 -51 79 c-28 43 -48 80 -43 82 4 1 25 -1
46 -6 36 -7 43 -16 158 -195 115 -181 121 -187 141 -173 12 8 20 21 20 29 -1
8 -42 78 -93 156 -50 78 -91 144 -91 147 0 6 37 -1 103 -17 33 -9 45 -21 98
-104 34 -52 64 -95 67 -95 11 1 42 27 42 35 0 4 -22 43 -50 86 -27 43 -50 80
-50 84 0 3 38 30 85 61 47 30 85 58 85 62 0 4 -7 16 -15 27 -17 22 -16 22
-144 -60 l-64 -42 -73 15 c-41 8 -72 18 -69 22 2 3 74 51 159 106 86 54 156
101 156 104 0 3 -8 15 -18 27 l-17 22 -189 -120 c-184 -119 -189 -121 -232
-114 -24 3 -44 9 -44 13 0 4 32 27 70 51 39 24 70 49 70 55 0 6 -7 19 -14 29
-13 17 -21 14 -121 -49 l-106 -67 -96 21 c-53 12 -99 24 -101 27 -3 2 23 48
57 100 33 53 61 99 61 103 0 4 -49 27 -110 51 -60 24 -110 47 -110 52 0 5 30
41 67 81 37 40 68 75 70 76 1 2 61 7 135 10 l133 7 0 30 0 30 -99 -4 -99 -3
27 35 c15 20 35 38 44 41 10 3 110 8 225 12 l207 6 0 35 0 34 -112 -6 c-62 -3
-146 -8 -185 -11 -40 -2 -73 -1 -73 3 0 5 22 30 48 56 l49 48 111 6 112 6 0
31 0 32 -105 -4 -105 -4 0 53 c0 30 -3 78 -6 107 -7 50 -8 52 -37 52 l-30 0 6
-117 6 -118 -51 -53 c-27 -29 -52 -52 -53 -50 -2 2 -7 87 -11 191 l-7 187 -34
0 -35 0 6 -67 c3 -38 8 -139 12 -225 l6 -157 -28 -35 c-16 -20 -32 -36 -36
-36 -5 0 -8 41 -8 90 l0 90 -33 0 -34 0 5 -129 5 -129 -69 -74 c-37 -40 -69
-74 -70 -76 -1 -2 -28 44 -59 102 -36 69 -61 104 -68 99 -7 -3 -51 -37 -100
-75 -100 -79 -84 -86 -132 63 l-28 86 62 117 c35 65 61 119 60 120 -14 12 -52
27 -56 22 -3 -2 -24 -42 -48 -87 -23 -45 -45 -77 -47 -73 -3 5 -11 25 -17 45
-12 36 -9 42 90 233 56 109 100 198 98 200 -16 14 -54 27 -56 20 -2 -5 -41
-81 -87 -169 l-84 -159 -22 71 -21 71 51 102 c28 56 50 103 48 105 -5 4 -47
25 -50 25 -2 0 -20 -33 -40 -73z m402 -787 c16 -33 30 -61 30 -64 0 -5 -160
30 -166 37 -3 3 95 86 103 87 2 0 16 -27 33 -60z m-310 -78 c0 -4 -27 -34 -59
-66 l-59 -58 -5 28 c-3 16 -8 46 -12 67 l-6 37 71 0 c38 0 70 -4 70 -8z m257
-38 c94 -20 95 -11 -4 -118 l-61 -67 -31 100 c-17 54 -31 102 -31 106 0 4 10
5 23 2 12 -3 59 -13 104 -23z m-160 -95 l31 -101 -32 6 c-17 3 -64 13 -103 22
-69 15 -72 17 -59 35 18 26 120 136 126 138 4 0 20 -44 37 -100z m492 -24 c1
-2 -14 -31 -35 -65 l-38 -62 -28 83 c-15 46 -28 86 -28 90 0 6 118 -36 129
-46z m-164 -58 c15 -49 24 -91 21 -94 -4 -5 -196 34 -203 41 -2 2 29 38 68 80
40 42 75 73 80 69 4 -4 19 -48 34 -96z m-407 -63 c45 -10 82 -21 82 -25 0 -4
-31 -40 -68 -80 l-68 -73 -28 87 c-15 48 -29 94 -33 103 -5 12 -1 15 13 11 10
-3 56 -14 102 -23z m-146 -99 c14 -47 22 -85 18 -85 -18 0 -121 48 -120 56 3
14 64 113 71 114 3 0 17 -38 31 -85z m468 19 c47 -10 87 -19 89 -20 2 -2 -29
-40 -70 -85 l-73 -81 -26 78 c-42 124 -44 137 -23 130 10 -2 56 -13 103 -22z
m-165 -51 c10 -32 24 -77 31 -101 l13 -43 -32 6 c-18 4 -66 14 -107 24 l-74
17 69 76 c39 42 73 77 76 77 3 1 14 -25 24 -56z m309 -79 c13 -94 13 -94 -48
-94 -91 0 -93 4 -29 76 31 35 60 64 63 64 4 0 10 -21 14 -46z m-297 -128 c5
-5 -95 -86 -106 -86 -4 0 -21 29 -38 64 l-32 64 86 -19 c47 -10 88 -21 90 -23z"/>
<path d="M10083 2435 l-21 -15 52 -101 53 -100 -21 -70 c-12 -38 -23 -69 -26
-69 -3 0 -43 73 -89 163 -46 89 -86 164 -87 166 -6 7 -54 -18 -54 -28 0 -5 45
-95 100 -199 55 -104 100 -198 100 -208 -1 -11 -7 -32 -14 -49 l-12 -29 -43
77 c-23 42 -44 77 -46 77 -2 0 -16 -5 -30 -12 l-25 -11 59 -112 60 -112 -31
-99 c-17 -54 -33 -101 -34 -102 -1 -2 -43 28 -92 67 -50 39 -94 71 -99 71 -5
0 -33 -49 -63 -110 l-54 -110 -78 83 -78 82 6 131 7 131 -28 7 c-15 4 -30 5
-33 2 -2 -3 -7 -49 -10 -101 l-5 -96 -34 33 -34 33 6 140 c3 77 8 177 11 223
l5 82 -35 0 -36 0 0 -72 c0 -40 -3 -125 -7 -188 l-6 -114 -49 54 -49 55 3 115
3 115 -33 3 -32 3 0 -74 c0 -41 -3 -89 -7 -107 l-6 -33 -104 6 -103 6 0 -35 0
-34 108 0 c119 0 115 2 183 -74 l44 -49 -85 6 c-47 4 -134 7 -195 8 l-110 2
-3 -32 -3 -31 53 -1 c29 0 131 -4 226 -8 l173 -7 37 -38 37 -37 -95 3 -95 3 0
-30 0 -30 122 -5 c137 -6 128 -1 224 -111 l49 -57 -106 -43 c-58 -24 -107 -46
-109 -49 -2 -3 25 -50 61 -105 35 -54 62 -101 60 -103 -2 -2 -52 -14 -110 -27
l-106 -24 -110 69 c-61 39 -112 70 -114 70 -2 0 -11 -11 -20 -25 l-17 -25 81
-52 c84 -53 86 -59 23 -73 -30 -6 -50 4 -209 105 -96 61 -181 113 -188 116
-16 6 -44 -45 -30 -54 6 -4 74 -47 152 -95 78 -49 142 -92 142 -96 0 -4 -31
-14 -68 -21 l-69 -13 -94 61 -94 60 -17 -21 c-10 -12 -18 -25 -18 -28 0 -4 35
-29 77 -55 42 -27 81 -52 87 -56 5 -3 -15 -45 -47 -96 l-56 -90 24 -16 c13 -9
26 -16 29 -16 2 0 30 42 61 93 32 50 62 95 68 98 14 10 128 31 133 26 3 -3
-38 -73 -90 -156 -53 -83 -96 -155 -96 -160 0 -17 41 -34 52 -23 6 6 61 91
123 188 l112 178 46 12 c26 7 47 10 47 8 0 -2 -20 -35 -45 -74 -25 -39 -45
-74 -45 -78 0 -11 40 -33 49 -27 5 3 37 50 72 105 61 95 65 100 109 109 25 5
73 16 108 25 45 10 62 11 62 3 0 -7 -7 -57 -15 -112 -8 -55 -15 -105 -15 -112
0 -9 30 -10 122 -6 105 5 121 4 116 -9 -3 -8 -18 -56 -34 -106 l-27 -92 -118
-62 -117 -62 14 -28 15 -29 86 45 c48 25 88 44 88 43 1 -1 -4 -22 -12 -47 -13
-45 -14 -45 -156 -119 -250 -130 -248 -128 -235 -156 6 -14 15 -25 19 -25 5 0
79 37 164 81 86 45 157 80 159 78 2 -2 -6 -33 -18 -69 l-21 -65 -87 -45 c-109
-57 -112 -60 -97 -93 l12 -27 93 51 93 50 37 -73 c58 -114 61 -119 90 -106 13
6 24 16 24 21 0 5 -23 52 -52 105 l-51 95 24 74 24 74 84 -160 c46 -87 87
-164 91 -171 6 -9 13 -9 31 0 13 7 26 14 28 16 2 1 -44 92 -102 202 -105 198
-105 199 -94 240 6 23 15 42 19 42 4 0 24 -33 44 -73 20 -39 38 -73 39 -75 3
-3 44 15 54 24 2 2 -22 53 -54 114 l-57 111 31 101 c17 56 33 103 35 105 2 2
47 -31 101 -72 53 -42 98 -75 100 -73 1 2 26 49 54 106 28 56 55 102 59 101 4
-1 38 -35 75 -76 l69 -74 -4 -134 -3 -135 33 0 32 0 1 78 c0 42 4 86 8 96 7
17 10 16 36 -18 l28 -37 -7 -219 -8 -220 30 0 c28 0 29 2 36 61 3 34 6 107 7
163 1 56 4 111 7 123 7 21 10 18 54 -31 l48 -54 -7 -111 -6 -110 27 -7 c15 -3
30 -4 33 0 3 3 8 51 11 106 l5 101 106 -2 106 -2 3 32 3 31 -73 1 c-145 2
-165 8 -217 68 l-45 53 192 -7 192 -8 0 31 0 30 -107 6 c-60 3 -162 9 -228 12
l-120 7 -30 35 -29 35 92 -5 92 -4 0 31 0 32 -122 6 -123 6 -74 76 c-42 43
-70 79 -65 84 5 4 57 27 116 51 65 26 104 48 101 54 -4 6 -33 50 -65 98 -32
48 -58 91 -58 96 0 5 47 19 104 31 l104 22 111 -70 111 -70 16 25 c20 29 21
28 -74 87 -40 25 -69 48 -64 51 5 3 27 8 49 12 38 6 49 1 224 -110 l184 -116
17 23 c10 12 18 24 18 27 0 3 -68 47 -150 99 -150 93 -173 111 -148 111 7 1
38 7 69 14 l57 14 93 -59 c51 -33 96 -59 100 -59 4 0 14 11 23 24 15 24 15 25
-22 47 -20 13 -61 38 -90 56 l-52 34 37 57 c79 123 78 121 57 137 -11 8 -23
14 -29 15 -5 0 -36 -42 -68 -94 l-57 -94 -71 -17 c-38 -10 -72 -16 -74 -14 -2
3 42 76 97 163 l100 159 -23 18 c-19 14 -27 15 -35 6 -6 -7 -58 -86 -114 -177
-57 -91 -110 -172 -117 -182 -14 -15 -80 -34 -90 -25 -2 3 17 37 42 77 43 68
45 73 28 86 -10 7 -23 14 -29 14 -7 0 -41 -46 -78 -103 l-65 -103 -97 -22
c-54 -12 -100 -20 -102 -17 -6 5 15 186 25 219 5 18 0 19 -125 13 l-130 -7 34
106 c18 58 34 107 36 109 2 1 54 28 115 61 62 32 113 64 113 70 0 5 -6 18 -13
28 -13 18 -18 16 -101 -27 l-88 -45 7 26 c15 63 29 73 222 175 l192 101 -15
28 -15 29 -164 -86 c-91 -48 -165 -83 -165 -78 0 4 8 35 18 68 l18 60 99 53
c55 30 101 55 103 57 3 3 -15 43 -24 54 -1 2 -41 -18 -87 -43 -47 -25 -90 -46
-96 -46 -6 0 -31 41 -56 90 -25 50 -49 90 -53 90 -4 0 -17 -7 -29 -15z m-209
-838 l40 -34 -85 -20 c-46 -10 -85 -18 -87 -17 -2 1 11 30 28 63 34 69 35 69
104 8z m333 -143 c-4 -37 -9 -69 -12 -72 -2 -3 -31 24 -64 59 l-59 64 47 6
c102 13 95 18 88 -57z m-267 40 c0 -4 -14 -51 -30 -105 l-31 -98 -72 75 c-40
42 -73 79 -75 83 -1 4 39 17 90 28 106 24 118 25 118 17z m210 -175 c0 -6
-200 -53 -205 -47 -2 2 11 50 28 107 l32 104 72 -79 c40 -43 73 -81 73 -85z
m-543 78 c-3 -7 -13 -41 -22 -75 -10 -35 -21 -65 -25 -67 -4 -3 -24 20 -44 51
l-37 55 53 24 c60 27 82 31 75 12z m148 -67 c37 -39 65 -73 62 -76 -9 -9 -197
-52 -197 -45 -1 14 55 191 61 191 3 0 36 -32 74 -70z m404 -92 c-1 -20 -53
-184 -60 -189 -3 -2 -39 31 -79 73 -47 51 -67 80 -58 83 13 4 175 42 191 44 4
1 7 -5 6 -11z m108 -83 c22 -34 33 -59 27 -65 -12 -11 -115 -52 -121 -47 -4 5
46 167 52 167 3 0 21 -25 42 -55z m-437 18 c0 -19 -54 -183 -61 -183 -9 0
-139 143 -134 148 5 5 155 40 178 41 9 1 17 -2 17 -6z m206 -170 c-6 -6 -166
-42 -187 -43 -14 0 -12 14 15 101 l31 100 73 -77 c40 -42 71 -79 68 -81z
m-326 -55 c0 -5 -32 -8 -71 -8 l-71 0 7 43 c3 23 9 55 12 71 l5 28 59 -63 c32
-35 58 -67 59 -71z m310 -79 c-22 -42 -36 -59 -46 -55 -19 7 -103 70 -104 77
0 7 123 37 158 38 22 1 22 1 -8 -60z"/>
</g>
</symbol>
</defs>
</svg>
