<svg aria-hidden="true" style="position: absolute; width: 0; height: 0; overflow: hidden;" version="1.1" xmlns="http://www.w3.org/2000/svg" xmlns:xlink="http://www.w3.org/1999/xlink">
<defs>
<symbol id="icon-arcticons_map" viewBox="0 0 32 32">
<path stroke-linejoin="round" stroke-linecap="round" stroke-miterlimit="4" stroke-width="1.3333" d="M16 3c-5.457 0-9.88 4.423-9.88 9.88v0 0.72c0.4 5.413 4.893 9.767 9.88 15.4 5.207-5.88 9.88-10.333 9.88-16.12 0-5.457-4.423-9.88-9.88-9.88v0zM16 8.133c2.625 0 4.753 2.128 4.753 4.753s-2.128 4.753-4.753 4.753v0c-2.625 0-4.753-2.128-4.753-4.753s2.128-4.753 4.753-4.753v0z"></path>
</symbol>
<symbol id="icon-arcticons_phone" viewBox="0 0 32 32">
<path stroke-linejoin="round" stroke-linecap="round" stroke-miterlimit="4" stroke-width="1.3333" d="M27.147 20.187c-1.655-0.206-3.082-0.465-4.481-0.796l0.281 0.056c-0.196-0.068-0.422-0.107-0.657-0.107-0.514 0-0.983 0.187-1.346 0.496l0.003-0.002c-0.353 0.36-1.373 1.367-2.433 2.407-3.814-1.904-6.832-4.924-8.683-8.629l-0.050-0.111c1.033-1.060 2-2.073 2.393-2.427 0.307-0.359 0.494-0.829 0.494-1.343 0-0.235-0.039-0.461-0.111-0.672l0.004 0.015c-0.275-1.122-0.535-2.55-0.719-4.003l-0.021-0.204c-0.072-0.675-0.638-1.196-1.326-1.196-0.073 0-0.145 0.006-0.215 0.017l0.008-0.001h-5.68c-0.484 0.045-0.865 0.429-0.906 0.91l-0 0.004c-0.367 5.127 2.493 10.613 3.073 11.667v0.040l0.080 0.153c2.113 3.621 5.046 6.553 8.555 8.606l0.112 0.060 0.293 0.167c1.333 0.707 6.633 3.373 11.587 3.007 0.49-0.035 0.881-0.419 0.926-0.903l0-0.004v-5.673c0.010-0.062 0.016-0.134 0.016-0.207 0-0.688-0.521-1.254-1.19-1.326l-0.006-0z"></path>
</symbol>
<symbol id="icon-arcticons_spike-email" viewBox="0 0 32 32">
<path stroke-linejoin="round" stroke-linecap="round" stroke-miterlimit="4" stroke-width="1.3333" d="M25.148 27.035c0.356-0.296 0.699-0.608 1.025-0.937M23.88 16c-0.004-4.345-3.528-7.866-7.873-7.866-4.348 0-7.873 3.525-7.873 7.873 0 0.003 0 0.005 0 0.008v-0c0.004 4.345 3.527 7.867 7.873 7.867 4.348 0 7.873-3.525 7.873-7.873 0-0.002 0-0.005 0-0.007v0z"></path>
<path stroke-linejoin="round" stroke-linecap="round" stroke-miterlimit="4" stroke-width="1.3333" d="M30.333 16c0-0.007 0-0.016 0-0.025 0-7.916-6.417-14.333-14.333-14.333s-14.333 6.417-14.333 14.333c0 2.83 0.82 5.469 2.236 7.691l-0.035-0.058-0.889 5.413 5.413-0.889c2.161 1.381 4.796 2.201 7.623 2.201 2.009 0 3.921-0.414 5.656-1.162l-0.093 0.036"></path>
<path stroke-linejoin="round" stroke-linecap="round" stroke-miterlimit="4" stroke-width="1.3333" d="M23.429 18.624c-0.963 2.348 0.605 3.612 1.953 3.919 1.645 0.373 4.951-1.347 4.951-6.543"></path>
</symbol>
<symbol id="icon-arrow-left" viewBox="0 0 30 32">
<path d="M20.014 27.334c0.158-0.175 0.255-0.408 0.255-0.663 0-0.002 0-0.003 0-0.005v0c0-0.001 0-0.003 0-0.005 0-0.256-0.097-0.488-0.256-0.664l0.001 0.001-9.137-9.998 9.137-9.996c0.158-0.175 0.255-0.408 0.255-0.663 0-0.002 0-0.003 0-0.005v0c0-0.001 0-0.003 0-0.005 0-0.256-0.097-0.488-0.256-0.664l0.001 0.001c-0.077-0.085-0.17-0.154-0.275-0.202l-0.005-0.002c-0.098-0.046-0.213-0.072-0.334-0.072-0.242 0-0.46 0.107-0.608 0.276l-0.001 0.001-9.716 10.634c-0.17 0.187-0.266 0.437-0.266 0.698s0.095 0.511 0.266 0.698l9.716 10.634c0.080 0.087 0.175 0.156 0.28 0.204 0.098 0.046 0.213 0.072 0.334 0.072 0.242 0 0.46-0.107 0.608-0.276l0.001-0.001v0.002z"></path>
</symbol>
<symbol id="icon-arrow-right" viewBox="0 0 30 32">
<path d="M9.986 4.666c-0.158 0.175-0.255 0.408-0.255 0.663 0 0.002 0 0.003 0 0.005v-0c0 0.25 0.092 0.49 0.255 0.668l9.137 9.998-9.137 9.996c-0.158 0.175-0.255 0.408-0.255 0.663 0 0.002 0 0.003 0 0.005v-0c0 0.25 0.092 0.49 0.255 0.668 0.080 0.087 0.175 0.156 0.28 0.204 0.098 0.046 0.213 0.072 0.334 0.072 0.242 0 0.46-0.107 0.608-0.275l0.001-0.001 9.716-10.634c0.17-0.187 0.266-0.437 0.266-0.698s-0.095-0.511-0.266-0.698l-9.716-10.634c-0.077-0.085-0.17-0.154-0.275-0.202l-0.005-0.002c-0.097-0.045-0.211-0.071-0.332-0.071s-0.234 0.026-0.337 0.073l0.005-0.002c-0.11 0.050-0.203 0.119-0.279 0.203l-0.001 0.001v-0.002z"></path>
</symbol>
<symbol id="icon-benefit_awards" viewBox="0 0 32 32">
<path stroke-linejoin="round" stroke-linecap="round" stroke-miterlimit="4" stroke-width="2" d="M20.667 30h-9.334M20.667 30v-13.067c0-0.516-0.418-0.934-0.934-0.934h-7.466c-0 0-0.001 0-0.001 0-0.515 0-0.933 0.418-0.933 0.933 0 0 0 0.001 0 0.001v-0 13.067M20.667 30h8.4c0.515 0 0.933-0.418 0.933-0.933v0-3.578c0-0 0-0.001 0-0.001 0-0.515-0.418-0.933-0.933-0.933h-7.467c-0.515 0.001-0.933 0.419-0.933 0.934v0 4.511zM11.333 30v-7.623c0-0.515-0.418-0.933-0.933-0.933v0h-7.467c-0.515 0-0.933 0.418-0.933 0.933v0 6.69c0 0.515 0.418 0.933 0.933 0.933v0h8.4zM14.143 5.286l1.414-2.998c0.078-0.171 0.247-0.288 0.443-0.288s0.365 0.117 0.442 0.285l0.001 0.003 1.416 2.998 3.16 0.483c0.407 0.063 0.569 0.585 0.275 0.884l-2.287 2.333 0.54 3.295c0.068 0.423-0.355 0.747-0.719 0.546l-2.828-1.555-2.828 1.555c-0.362 0.2-0.787-0.123-0.719-0.546l0.54-3.295-2.287-2.333c-0.295-0.299-0.132-0.821 0.273-0.884l3.164-0.483z"></path>
</symbol>
<symbol id="icon-benefit_gruph" viewBox="0 0 32 32">
<path stroke-linejoin="round" stroke-linecap="round" stroke-miterlimit="4" stroke-width="2" d="M25.333 26.333h-21v-21"></path>
<path stroke-linejoin="round" stroke-linecap="round" stroke-miterlimit="4" stroke-width="2" d="M4.333 21.74l10.5-9.844 3.938 3.937 5.906-5.906"></path>
</symbol>
<symbol id="icon-benefit_home" viewBox="0 0 32 32">
<path stroke-linejoin="round" stroke-linecap="round" stroke-miterlimit="4" stroke-width="2" d="M25.333 17.333v8.534c0 0.442-0.358 0.8-0.8 0.8h-17.066c-0.442 0-0.8-0.358-0.8-0.8v0-8.534M4 12.667l12-7.334 12 7.334h-24z"></path>
</symbol>
<symbol id="icon-benefit_suitcase" viewBox="0 0 32 32">
<path stroke-linejoin="miter" stroke-linecap="butt" stroke-miterlimit="4" stroke-width="2" d="M10.667 9.333h10.666M10.667 9.333h-5.334c-1.473 0.001-2.666 1.194-2.666 2.667v0 13.333c0 1.473 1.193 2.666 2.666 2.667h21.334c1.473-0.001 2.666-1.194 2.666-2.667v0-13.333c0-1.473-1.194-2.666-2.666-2.667h-16zM10.667 9.333v-4.533c0-0.442 0.358-0.8 0.8-0.8v0h9.066c0.442 0 0.8 0.358 0.8 0.8v0 4.533h-10.666z"></path>
</symbol>
<symbol id="icon-burger" viewBox="0 0 32 32">
<path d="M4 5.333h24v2.667h-24v-2.667zM4 14.667h24v2.667h-24v-2.667zM4 24h24v2.667h-24v-2.667z"></path>
</symbol>
<symbol id="icon-close_btn" viewBox="0 0 32 32">
<path d="M24.48 26.373l-8.48-8.493-8.48 8.493-1.893-1.893 8.493-8.48-8.493-8.48 1.893-1.893 8.48 8.493 8.48-8.48 1.88 1.88-8.48 8.48 8.48 8.48-1.88 1.893z"></path>
</symbol>
<symbol id="icon-facebook" viewBox="0 0 32 32">
<path d="M0 16.089c0 7.955 5.777 14.569 13.333 15.911v-11.556h-4v-4.444h4v-3.556c0-4 2.577-6.221 6.223-6.221 1.155 0 2.4 0.177 3.555 0.355v4.089h-2.044c-1.956 0-2.4 0.977-2.4 2.223v3.111h4.267l-0.711 4.444h-3.556v11.556c7.556-1.341 13.333-7.955 13.333-15.911 0-8.849-7.2-16.089-16-16.089s-16 7.24-16 16.089z"></path>
</symbol>
<symbol id="icon-instagram" viewBox="0 0 32 32">
<path d="M9.953 1.421c1.564-0.072 2.063-0.088 6.047-0.088s4.483 0.017 6.045 0.088c1.563 0.071 2.629 0.32 3.563 0.681 0.977 0.369 1.864 0.947 2.597 1.693 0.747 0.732 1.323 1.617 1.691 2.596 0.363 0.933 0.611 2 0.683 3.56 0.072 1.567 0.088 2.065 0.088 6.048 0 3.984-0.017 4.483-0.088 6.047-0.071 1.56-0.32 2.627-0.683 3.56-0.389 1.017-0.964 1.884-1.69 2.598l-0.001 0.001c-0.733 0.747-1.62 1.323-2.597 1.691-0.933 0.363-2 0.611-3.56 0.683-1.565 0.072-2.064 0.088-6.048 0.088s-4.483-0.017-6.047-0.088c-1.56-0.071-2.627-0.32-3.56-0.683-1.017-0.389-1.884-0.964-2.598-1.69l-0.001-0.001c-0.727-0.714-1.303-1.581-1.675-2.548l-0.017-0.049c-0.361-0.933-0.609-2-0.681-3.56-0.072-1.567-0.088-2.065-0.088-6.048 0-3.984 0.017-4.483 0.088-6.045s0.32-2.629 0.681-3.563c0.39-1.016 0.966-1.883 1.692-2.596l0.001-0.001c0.714-0.727 1.58-1.303 2.547-1.675l0.049-0.017c0.933-0.361 2-0.609 3.56-0.681h0.001zM21.927 4.061c-1.547-0.071-2.011-0.085-5.927-0.085s-4.38 0.015-5.927 0.085c-1.431 0.065-2.207 0.304-2.724 0.505-0.684 0.267-1.173 0.583-1.687 1.096-0.475 0.462-0.848 1.025-1.086 1.655l-0.010 0.031c-0.201 0.517-0.44 1.293-0.505 2.724-0.071 1.547-0.085 2.011-0.085 5.927s0.015 4.38 0.085 5.927c0.065 1.431 0.304 2.207 0.505 2.724 0.235 0.636 0.609 1.213 1.096 1.687 0.473 0.487 1.051 0.861 1.687 1.096 0.517 0.201 1.293 0.44 2.724 0.505 1.547 0.071 2.009 0.085 5.927 0.085s4.38-0.015 5.927-0.085c1.431-0.065 2.207-0.304 2.724-0.505 0.684-0.267 1.173-0.583 1.687-1.096 0.487-0.473 0.861-1.051 1.096-1.687 0.201-0.517 0.44-1.293 0.505-2.724 0.071-1.547 0.085-2.011 0.085-5.927s-0.015-4.38-0.085-5.927c-0.065-1.431-0.304-2.207-0.505-2.724-0.267-0.684-0.583-1.173-1.096-1.687-0.462-0.474-1.025-0.848-1.655-1.086l-0.031-0.010c-0.517-0.201-1.293-0.44-2.724-0.505zM14.127 20.521c0.554 0.236 1.198 0.373 1.874 0.373 2.703 0 4.893-2.191 4.893-4.893 0-2.112-1.338-3.911-3.212-4.597l-0.034-0.011c-0.49-0.181-1.057-0.286-1.648-0.286-2.703 0-4.893 2.191-4.893 4.893 0 2.026 1.232 3.765 2.988 4.508l0.032 0.012zM10.669 10.669c1.364-1.364 3.249-2.208 5.331-2.208 4.163 0 7.539 3.375 7.539 7.539 0 2.082-0.844 3.966-2.208 5.331v0c-1.364 1.364-3.249 2.208-5.331 2.208-4.163 0-7.539-3.375-7.539-7.539 0-2.082 0.844-3.966 2.208-5.331v0zM25.211 9.584c0.345-0.326 0.559-0.786 0.559-1.296 0-0.984-0.798-1.782-1.782-1.782-0.474 0-0.904 0.185-1.224 0.487l0.001-0.001c-0.345 0.326-0.559 0.786-0.559 1.296 0 0.984 0.798 1.782 1.782 1.782 0.474 0 0.904-0.185 1.224-0.487l-0.001 0.001z"></path>
</symbol>
<symbol id="icon-send_icon" viewBox="0 0 32 32">
<path d="M29.107 15.591l-26.141-13.107c-0.065-0.033-0.142-0.053-0.223-0.053-0.276 0-0.5 0.224-0.5 0.5 0 0.042 0.005 0.083 0.015 0.122l-0.001-0.003 2.693 11.007c0.041 0.167 0.163 0.299 0.322 0.352l0.003 0.001 4.616 1.584-4.613 1.585c-0.16 0.055-0.28 0.186-0.319 0.349l-0.001 0.003-2.701 11.023c-0.009 0.035-0.014 0.075-0.014 0.116 0 0.277 0.224 0.501 0.501 0.501 0.081 0 0.157-0.019 0.224-0.053l-0.003 0.001 26.141-13.031c0.097-0.050 0.175-0.126 0.224-0.22l0.001-0.003c0.032-0.065 0.051-0.142 0.051-0.222 0-0.196-0.112-0.367-0.275-0.451l-0.003-0.001zM5.337 25.821l1.573-6.424 9.224-3.167c0.1-0.035 0.17-0.128 0.17-0.237s-0.070-0.203-0.168-0.237l-0.002-0.001-9.225-3.163-1.565-6.4 19.625 9.84-19.632 9.788z"></path>
</symbol>
<symbol id="icon-twitter" viewBox="0 0 32 32">
<path stroke-linejoin="round" stroke-linecap="round" stroke-miterlimit="4" stroke-width="2.6667" d="M32 5.344s-1.027 2.799-2.933 4.531c2.347 13.327-13.787 23.056-26.4 15.46 3.227 0.133 6.453-0.8 8.8-2.667-7.333-1.997-11-9.86-7.333-15.991 3.227 3.467 8.213 5.464 13.2 5.331-1.32-5.597 5.867-8.795 10.267-5.064 1.613 0 4.4-1.6 4.4-1.6z"></path>
</symbol>
<symbol id="icon-youtube" viewBox="0 0 32 32">
<path d="M29.384 5.513c-0.867-0.651-3.28-1.513-13.392-1.513-10.837 0-12.445 0.991-12.96 1.316-2.748 1.72-3.009 9.332-3.032 10.876 0.033 2.039 0.349 8.821 3.029 10.499 0.515 0.324 2.113 1.309 12.963 1.309 10.12 0 12.529-0.859 13.392-1.507 2.34-1.755 2.609-7.799 2.616-10.328-0.007-2.035-0.211-8.847-2.616-10.653zM28.217 24.804c-0.348 0.261-2.347 1.113-12.227 1.113-9.549 0-11.553-0.773-11.932-1.011-0.964-0.603-1.981-3.803-2.061-8.72 0.080-4.908 1.111-8.491 2.064-9.085 0.379-0.24 2.391-1.019 11.931-1.019 9.869 0 11.875 0.859 12.225 1.12 0.856 0.643 1.771 4.025 1.785 8.969-0.013 5.021-0.936 7.995-1.787 8.632zM22.505 15.181l-8.987-5.749c-0.146-0.093-0.325-0.149-0.516-0.149-0.181 0-0.351 0.050-0.496 0.137l0.004-0.002c-0.156 0.093-0.282 0.222-0.369 0.376l-0.003 0.005c-0.086 0.151-0.136 0.331-0.136 0.524 0 0.001 0 0.001 0 0.002v-0 11.5c0 0.276 0.105 0.541 0.293 0.736 0.177 0.188 0.428 0.305 0.706 0.305 0.192 0 0.37-0.056 0.521-0.151l-0.004 0.002 8.987-5.752c0.292-0.19 0.483-0.515 0.483-0.885 0-0.002 0-0.004-0-0.006v0c0-0.003 0-0.007 0-0.010 0-0.369-0.19-0.693-0.477-0.881l-0.004-0.002zM14 19.98v-7.813l6.057 3.907-6.056 3.907z"></path>
</symbol>
</defs>
</svg>
